<?xml version="1.0" encoding="utf-8"?>
<!-- Generator: Adobe Illustrator 23.0.2, SVG Export Plug-In . SVG Version: 6.00 Build 0)  -->
<svg version="1.1" id="Layer_1" xmlns="http://www.w3.org/2000/svg" xmlns:xlink="http://www.w3.org/1999/xlink" x="0px" y="0px"
	 viewBox="0 0 74 74" style="enable-background:new 0 0 74 74;" xml:space="preserve">
<style type="text/css">
	.st0{clip-path:url(#SVGID_2_);}
	.st1{fill:#1F222E;}
	.st2{fill-rule:evenodd;clip-rule:evenodd;fill:#FFFFFF;}
	.st3{fill:#FFFFFF;}
	.st4{fill:#FFC115;stroke:#1F1C23;}
</style>
<g>
	<defs>
		<rect id="SVGID_1_" width="74" height="74"/>
	</defs>
	<clipPath id="SVGID_2_">
		<use xlink:href="#SVGID_1_"  style="overflow:visible;"/>
	</clipPath>
	<g class="st0">
		<circle class="st1" cx="37" cy="37" r="37"/>
		<path class="st2" d="M20.7912,22.1067c1.3291-0.3989,2.7299,0.3553,3.1288,1.6845l3.2036,10.6762
			c0.3988,1.3292-0.3553,2.73-1.6845,3.1288c-1.3291,0.3989-2.73-0.3553-3.1288-1.6845l-3.2036-10.6762
			C18.7078,23.9063,19.462,22.5055,20.7912,22.1067z M36.3987,48.5612c0.3986-1.3292,1.7993-2.0835,3.1285-1.6849L50.2085,50.08
			c1.3292,0.3986,2.0836,1.7993,1.6849,3.1285c-0.3986,1.3292-1.7994,2.0836-3.1286,1.6849l-10.6813-3.2036
			C36.7543,51.2911,36,49.8904,36.3987,48.5612z"/>
		<path class="st2" d="M52.2828,21.7172c0.9563,0.9563,0.9563,2.5068,0,3.4631L38.1803,39.2828
			c-0.9563,0.9563-2.5068,0.9563-3.4631,0c-0.9563-0.9563-0.9563-2.5068,0-3.4631l14.1025-14.1025
			C49.776,20.7609,51.3265,20.7609,52.2828,21.7172z"/>
		<path class="st2" d="M20.5,19.2c-0.718,0-1.3,0.582-1.3,1.3s0.582,1.3,1.3,1.3s1.3-0.582,1.3-1.3S21.218,19.2,20.5,19.2z M14,20.5
			c0-3.5899,2.9101-6.5,6.5-6.5s6.5,2.9101,6.5,6.5S24.0899,27,20.5,27S14,24.0899,14,20.5z"/>
		<path class="st2" d="M53.5,19.2c-0.718,0-1.3,0.582-1.3,1.3s0.582,1.3,1.3,1.3s1.3-0.582,1.3-1.3S54.218,19.2,53.5,19.2z M47,20.5
			c0-3.5899,2.9101-6.5,6.5-6.5s6.5,2.9101,6.5,6.5S57.0899,27,53.5,27S47,24.0899,47,20.5z"/>
		<path class="st2" d="M53.5,52.2c-0.718,0-1.3,0.582-1.3,1.3s0.582,1.3,1.3,1.3s1.3-0.582,1.3-1.3S54.218,52.2,53.5,52.2z M47,53.5
			c0-3.5899,2.9101-6.5,6.5-6.5s6.5,2.9101,6.5,6.5S57.0899,60,53.5,60S47,57.0899,47,53.5z"/>
		<circle class="st3" cx="28" cy="46" r="14"/>
		<path class="st4" d="M70.587,20.7766l-0.4954-0.9918l-0.4155,1.0278c-0.2763,0.6835-0.5434,1.1535-0.9496,1.5706
			c-0.413,0.4241-0.99751,0.8219-1.9541,1.3112l-0.9427,0.4822l0.97131,0.4216c0.83929,0.3643,1.3931,0.6626,1.81779,1.063
			c0.4156,0.3918,0.7411,0.9144,1.04961,1.7849l0.381,1.0754l0.5324-1.009c0.4387-0.8312,0.8077-1.3783,1.2352-1.8056
			c0.4247-0.4244,0.9315-0.755,1.68-1.1173l0.90079-0.436l-0.8895-0.4585c-0.8816-0.4544-1.4308-0.8426-1.8448-1.2726
			C71.2495,21.9924,70.9455,21.4945,70.587,20.7766z"/>
		<path class="st4" d="M8.29731,7.77542L7.81862,6.8232l-0.4263,0.97681C6.74855,9.27514,6.14023,10.2894,5.31505,11.1217
			c-0.82716,0.8342-1.90197,1.5155-3.52646,2.2755l-0.98545,0.4611l0.99165,0.4475c1.44387,0.6517,2.4583,1.2442,3.30015,2.0616
			c0.8415,0.8171,1.54052,1.8883,2.30143,3.5418l0.44584,0.9689l0.45957-0.9624c0.6549-1.3715,1.17222-2.3627,1.95622-3.2172
			c0.7781-0.8481,1.8477-1.5908,3.6461-2.3916l1.0061-0.4481l-0.9995-0.4625c-1.4626-0.6767-2.4687-1.3158-3.3017-2.1518
			C9.77314,10.4057,9.08496,9.34221,8.29731,7.77542z"/>
		<path class="st4" d="M52.1563,67.7495l-0.4797-0.8285l-0.4058,0.867c-0.1899,0.4057-0.3629,0.6598-0.573,0.8655
			c-0.2149,0.2104-0.4931,0.39429-0.9326,0.62849l-0.8898,0.47411l0.916,0.42139c0.4339,0.1996,0.7061,0.37,0.9137,0.5741
			c0.205,0.2014,0.3758,0.4641,0.5589,0.8917l0.4255,0.99409l0.4818-0.9681c0.2125-0.42699,0.3978-0.69659,0.6108-0.90669
			c0.2136-0.21091,0.4797-0.38641,0.8896-0.5927l0.8652-0.4355l-0.8561-0.45309c-0.3891-0.2058-0.6405-0.3803-0.8536-0.594
			C52.6108,68.4705,52.4126,68.1921,52.1563,67.7495z"/>
	</g>
</g>
</svg>
