<?xml version="1.0" encoding="utf-8"?>
<!-- Generator: Adobe Illustrator 23.0.2, SVG Export Plug-In . SVG Version: 6.00 Build 0)  -->
<svg version="1.1" id="Layer_1" xmlns="http://www.w3.org/2000/svg" xmlns:xlink="http://www.w3.org/1999/xlink" x="0px" y="0px"
	 viewBox="0 0 33 21.84393" style="enable-background:new 0 0 33 21.84393;" xml:space="preserve">
<path d="M9.46571,0c0.52804,0,1.03453,0.21573,1.40792,0.59973c0.37338,0.384,0.58323,0.90488,0.58323,1.44792v5.3238
	l4.48674-2.6619c0.2266-0.13456,0.47678-0.22179,0.73614-0.25674c0.25936-0.0351,0.52294-0.01718,0.7756,0.05257
	c0.25281,0.06961,0.4896,0.1899,0.69711,0.35373c0.20752,0.16383,0.38169,0.36814,0.51231,0.60114
	c0.13077,0.23315,0.21568,0.49032,0.24975,0.75711c0.03393,0.26679,0.0166,0.5378-0.05111,0.79759
	c-0.06786,0.25994-0.1848,0.50343-0.34412,0.71692c-0.15931,0.21334-0.35795,0.39232-0.58454,0.52688l-4.48674,2.6619
	l4.48674,2.66452c0.43775,0.28135,0.75201,0.72638,0.87682,1.24146c0.1248,0.51508,0.05024,1.05987-0.2081,1.51947
	c-0.25819,0.45959-0.67993,0.79803-1.17608,0.94409c-0.49629,0.14607-1.02826,0.08825-1.48378-0.16121l-4.48674-2.65913v5.32642
	c0,0.54304-0.20985,1.06394-0.58323,1.44796c-0.37339,0.38402-0.87987,0.59969-1.40792,0.59969s-1.03453-0.21567-1.40792-0.59969
	c-0.37338-0.38402-0.58323-0.90492-0.58323-1.44796v-5.32919l-4.48674,2.66467c-0.4577,0.27145-1.00147,0.34484-1.51175,0.20417
	c-0.51042-0.14082-0.9454-0.48435-1.20942-0.95502c-0.26402-0.47066-0.33552-1.02987-0.19863-1.55471
	c0.13704-0.52484,0.47096-0.9722,0.92866-1.24365l4.48674-2.6619l-4.48674-2.6619c-0.4577-0.27159-0.79162-0.71896-0.92866-1.24379
	c-0.13689-0.52484-0.06538-1.08404,0.19863-1.5547C0.53067,4.98959,0.96565,4.6462,1.47607,4.50538
	c0.51028-0.14082,1.05404-0.06742,1.51175,0.20417l4.48674,2.66452V2.04765c0-0.54304,0.20985-1.06392,0.58323-1.44792
	C8.43118,0.21573,8.93767,0,9.46571,0z"/>
<path d="M26.28815,12.85841L23.02579,10.921l3.26237-1.93548c0.16474-0.09781,0.30918-0.22795,0.42501-0.38307
	c0.11583-0.15527,0.20088-0.33228,0.25022-0.52127c0.04924-0.1889,0.06181-0.38597,0.03716-0.57994
	c-0.02479-0.19402-0.0865-0.38099-0.1816-0.55051c-0.09496-0.16942-0.22161-0.31797-0.37248-0.43709
	c-0.15092-0.11912-0.3231-0.20659-0.50687-0.25723c-0.18373-0.05069-0.37538-0.06374-0.56399-0.03822
	c-0.18856,0.02542-0.37045,0.08887-0.53524,0.18668l-3.26232,1.93548V4.46938c0-0.39486-0.15261-0.77357-0.42409-1.05279
	c-0.27148-0.27922-0.63976-0.43608-1.0237-0.43608s-0.75221,0.15686-1.0237,0.43608
	c-0.27148,0.27922-0.42409,0.65793-0.42409,1.05279v0.22224c0.09022,0.05064,0.17982,0.10283,0.26172,0.16749
	c0.20755,0.16382,0.38171,0.36813,0.51233,0.60115c0.13077,0.23312,0.21567,0.4903,0.24974,0.7571
	c0.03392,0.2668,0.01662,0.5378-0.05113,0.79759c-0.06785,0.25994-0.18479,0.50344-0.34412,0.71694
	c-0.15928,0.21335-0.35794,0.3923-0.58453,0.52688l-0.04402,0.0261v0.05741l-0.04832-0.0287l-2.89718,1.71884l1.49776,0.88859
	l-1.49795,0.88868l2.89568,1.71966l0.05001-0.02972v0.05939l0.04402,0.02614c0.43777,0.28134,0.75202,0.72641,0.87684,1.2415
	c0.12477,0.51504,0.05021,1.05985-0.20813,1.51946c-0.17218,0.30647-0.42148,0.55215-0.71273,0.72974v0.29869
	c0,0.39486,0.15261,0.77357,0.42409,1.05279c0.27149,0.27922,0.63976,0.43608,1.0237,0.43608s0.75221-0.15686,1.0237-0.43608
	c0.27149-0.27922,0.42409-0.65793,0.42409-1.05279v-3.8729l3.26232,1.9335c0.33121,0.18136,0.718,0.2234,1.07889,0.11719
	c0.36074-0.10622,0.66741-0.35228,0.85515-0.68645c0.18784-0.33416,0.24206-0.73028,0.1513-1.10484
	C26.83494,13.38655,26.60642,13.06297,26.28815,12.85841z"/>
<path d="M32.78413,9.25079c0.08345-0.11187,0.14468-0.2394,0.18025-0.37558c0.03547-0.13608,0.04456-0.27806,0.02677-0.41786
	c-0.01783-0.13975-0.06234-0.27448-0.13081-0.3966c-0.06842-0.12207-0.15966-0.2291-0.26839-0.31493
	c-0.10873-0.08582-0.23278-0.14884-0.36519-0.18532c-0.13236-0.03653-0.27047-0.04591-0.40631-0.02754
	c-0.13589,0.01831-0.26694,0.06403-0.38568,0.13453l-2.35044,1.39449V6.27301c0-0.28448-0.10994-0.55737-0.30555-0.75854
	c-0.19557-0.20113-0.46092-0.31416-0.73752-0.31416c-0.27666,0-0.54196,0.11303-0.73757,0.31416
	c-0.19562,0.20117-0.30556,0.47406-0.30556,0.75854v0.08694c0.08447,0.04296,0.16493,0.09438,0.24008,0.15367
	c0.15087,0.11912,0.27752,0.26767,0.37248,0.43709c0.0951,0.16952,0.15681,0.35654,0.1816,0.55051
	c0.02464,0.19397,0.01208,0.39104-0.03716,0.57994c-0.04934,0.189-0.13439,0.36606-0.25022,0.52127
	c-0.11583,0.15512-0.26027,0.28526-0.42501,0.38311l-0.08176,0.04852v0.02928L26.97344,9.0487l-2.08736,1.23836l1.06898,0.63421
	l-1.06908,0.63426l2.0863,1.23898l0.02585-0.01537v0.03069l0.08176,0.04856c0.31826,0.20461,0.54679,0.52818,0.63754,0.9027
	c0.09075,0.37451,0.03653,0.77063-0.1513,1.10479c-0.13521,0.2407-0.33363,0.43332-0.568,0.56327v0.14178
	c0,0.28448,0.10994,0.55737,0.30556,0.75854c0.19562,0.20117,0.46091,0.31416,0.73757,0.31416
	c0.27661,0,0.54196-0.11298,0.73752-0.31416c0.19562-0.20117,0.30555-0.47406,0.30555-0.75854v-2.79034l2.35044,1.39304
	c0.23867,0.13067,0.51731,0.16097,0.77734,0.08442c0.25989-0.0765,0.48083-0.2538,0.61609-0.49455
	c0.13536-0.24075,0.1744-0.52615,0.10902-0.796s-0.23002-0.50296-0.45932-0.65035l-2.35049-1.39589l2.35049-1.39449
	C32.59659,9.45631,32.70068,9.36257,32.78413,9.25079z"/>
</svg>
