<svg width="32" height="32" viewBox="0 0 32 32" fill="none" xmlns="http://www.w3.org/2000/svg">
<path d="M15.9904 30.3249C11.8904 30.3249 7.79037 30.3249 3.69038 30.3249C1.99038 30.3249 0.590375 29.2249 0.290375 27.5249C0.090375 26.7249 0.290375 25.9249 0.690375 25.1249C2.09037 22.6249 3.59037 20.1249 4.99038 17.6249C7.69038 12.9249 10.3904 8.22492 12.9904 3.52492C14.0904 1.62492 16.2904 1.12492 17.9904 2.32492C18.3904 2.62492 18.7904 3.02492 18.9904 3.42492C23.0904 10.6249 27.1904 17.8249 31.2904 25.1249C32.4904 27.2249 31.3904 29.5249 29.3904 30.1249C28.9904 30.2249 28.6904 30.3249 28.2904 30.3249C24.1904 30.3249 20.0904 30.3249 15.9904 30.3249ZM18.0904 11.3249C18.0904 10.7249 18.0904 10.1249 17.8904 9.52492C17.4904 8.42492 16.3904 7.92492 15.3904 8.52492C14.6904 8.92492 14.3904 9.52492 14.3904 10.3249C14.4904 12.9249 14.6904 15.5249 14.8904 18.1249C14.8904 18.6249 14.9904 19.2249 15.1904 19.7249C15.3904 20.1249 15.6904 20.4249 16.0904 20.4249C16.5904 20.4249 16.9904 20.2249 17.1904 19.8249C17.2904 19.6249 17.2904 19.5249 17.3904 19.3249C17.5904 18.5249 17.5904 17.6249 17.6904 16.8249C17.8904 15.0249 18.0904 13.1249 18.0904 11.3249ZM14.2904 24.0249C14.2904 25.1249 15.0904 25.9249 16.1904 25.9249C17.2904 25.9249 18.0904 25.1249 18.0904 24.1249C18.0904 23.0249 17.2904 22.2249 16.1904 22.1249C15.1904 22.1249 14.2904 22.9249 14.2904 24.0249Z" fill="#F04438"/>
</svg>
