<svg width="14" height="14" viewBox="0 0 14 14" fill="none" xmlns="http://www.w3.org/2000/svg">
<path d="M7 0C3.13129 0 0 3.13075 0 7C0 8.2278 0.320221 9.42697 0.928299 10.4846L0.0263825 13.2854C-0.0365296 13.4807 0.0151672 13.6947 0.160217 13.8398C0.303879 13.9834 0.517395 14.0371 0.714569 13.9736L3.51538 13.0717C4.57303 13.6798 5.7722 14 7 14C10.8687 14 14 10.8692 14 7C14 3.13129 10.8692 0 7 0ZM7 12.9062C5.89098 12.9062 4.80994 12.5968 3.87373 12.0114C3.73904 11.9272 3.57178 11.9045 3.41615 11.9546L1.39432 12.6057L2.04544 10.5838C2.09479 10.4305 2.07396 10.263 1.98851 10.1263C1.40318 9.19006 1.09375 8.10902 1.09375 7C1.09375 3.74332 3.74332 1.09375 7 1.09375C10.2567 1.09375 12.9062 3.74332 12.9062 7C12.9062 10.2567 10.2567 12.9062 7 12.9062ZM7.68359 7C7.68359 7.37747 7.37758 7.68359 7 7.68359C6.62242 7.68359 6.31641 7.37747 6.31641 7C6.31641 6.62242 6.62242 6.31641 7 6.31641C7.37758 6.31641 7.68359 6.62242 7.68359 7ZM10.418 7C10.418 7.37747 10.112 7.68359 9.73438 7.68359C9.3568 7.68359 9.05078 7.37747 9.05078 7C9.05078 6.62242 9.3568 6.31641 9.73438 6.31641C10.112 6.31641 10.418 6.62242 10.418 7ZM4.94922 7C4.94922 7.37747 4.6432 7.68359 4.26562 7.68359C3.88815 7.68359 3.58203 7.37747 3.58203 7C3.58203 6.62242 3.88815 6.31641 4.26562 6.31641C4.6432 6.31641 4.94922 6.62242 4.94922 7Z" fill="white"/>
</svg>
