<svg width="64" height="64" viewBox="0 0 64 64" fill="none" xmlns="http://www.w3.org/2000/svg">
<g clip-path="url(#clip0_9_1027)">
<path d="M32 0C14.336 0 0 14.336 0 32C0 49.664 14.336 64 32 64C49.664 64 64 49.664 64 32C64 14.336 49.664 0 32 0ZM34.912 51.68C34.6884 51.8993 34.4053 52.0481 34.0979 52.108C33.7905 52.1679 33.4722 52.1363 33.1826 52.017C32.893 51.8978 32.6448 51.6961 32.4687 51.4371C32.2926 51.1782 32.1964 50.8732 32.192 50.56V48H32C27.904 48 23.808 46.432 20.672 43.328C18.4993 41.15 16.9998 38.3923 16.3529 35.3847C15.706 32.377 15.939 29.2467 17.024 26.368C17.632 24.736 19.776 24.32 20.992 25.568C21.696 26.272 21.856 27.296 21.536 28.192C20.064 32.16 20.896 36.768 24.096 39.968C26.336 42.208 29.28 43.264 32.224 43.2V40.192C32.224 38.752 33.952 38.048 34.944 39.072L40.128 44.256C40.768 44.896 40.768 45.888 40.128 46.528L34.912 51.68ZM43.008 38.464C42.6772 38.1236 42.4503 37.696 42.354 37.2312C42.2576 36.7664 42.2958 36.2838 42.464 35.84C43.936 31.872 43.104 27.264 39.904 24.064C37.664 21.824 34.72 20.736 31.808 20.8V23.808C31.808 25.248 30.08 25.952 29.088 24.928L23.872 19.776C23.232 19.136 23.232 18.144 23.872 17.504L29.056 12.32C29.2796 12.1007 29.5627 11.9519 29.8701 11.892C30.1775 11.8321 30.4958 11.8637 30.7854 11.983C31.075 12.1022 31.3232 12.3039 31.4993 12.5629C31.6754 12.8219 31.7716 13.1268 31.776 13.44V16.032C35.936 15.968 40.128 17.472 43.296 20.672C45.4687 22.85 46.9682 25.6077 47.6151 28.6153C48.262 31.623 48.029 34.7533 46.944 37.632C46.336 39.296 44.224 39.712 43.008 38.464Z" fill="#1F222E"/>
<path d="M43.008 38.464C42.6772 38.1236 42.4503 37.696 42.354 37.2312C42.2576 36.7664 42.2958 36.2838 42.464 35.84C43.936 31.872 43.104 27.264 39.904 24.064C37.664 21.824 34.72 20.736 31.808 20.8V23.808C31.808 25.248 30.08 25.952 29.088 24.928L23.872 19.776C23.232 19.136 23.232 18.144 23.872 17.504L29.056 12.32C29.2796 12.1007 29.5627 11.9519 29.8701 11.892C30.1775 11.8321 30.4958 11.8637 30.7854 11.983C31.075 12.1022 31.3232 12.3039 31.4993 12.5629C31.6754 12.8219 31.7716 13.1268 31.776 13.44V16.032C35.936 15.968 40.128 17.472 43.296 20.672C45.4687 22.85 46.9682 25.6077 47.6151 28.6153C48.262 31.623 48.029 34.7533 46.944 37.632C46.336 39.296 44.224 39.712 43.008 38.464Z" fill="#1F222E"/>
<path d="M34.912 51.68C34.6884 51.8993 34.4053 52.0481 34.0979 52.108C33.7905 52.1679 33.4722 52.1363 33.1826 52.017C32.893 51.8978 32.6448 51.6961 32.4687 51.4371C32.2926 51.1782 32.1964 50.8732 32.192 50.56V48H32C27.904 48 23.808 46.432 20.672 43.328C18.4993 41.15 16.9998 38.3923 16.3529 35.3847C15.706 32.377 15.939 29.2467 17.024 26.368C17.632 24.736 19.776 24.32 20.992 25.568C21.696 26.272 21.856 27.296 21.536 28.192C20.064 32.16 20.896 36.768 24.096 39.968C26.336 42.208 29.28 43.264 32.224 43.2V40.192C32.224 38.752 33.952 38.048 34.944 39.072L40.128 44.256C40.768 44.896 40.768 45.888 40.128 46.528L34.912 51.68Z" fill="#1F222E"/>
<path d="M45.76 40.08C45.3465 39.6545 45.0629 39.1199 44.9425 38.539C44.8221 37.958 44.8698 37.3548 45.08 36.8C46.92 31.84 45.88 26.08 41.88 22.08C39.08 19.28 35.4 17.92 31.76 18V21.76C31.76 23.56 29.6 24.44 28.36 23.16L21.84 16.72C21.04 15.92 21.04 14.68 21.84 13.88L28.32 7.4C28.5995 7.12592 28.9534 6.93991 29.3376 6.86502C29.7219 6.79014 30.1197 6.82968 30.4817 6.97874C30.8437 7.1278 31.154 7.37982 31.3741 7.70357C31.5942 8.02732 31.7145 8.40855 31.72 8.8V12.04C36.92 11.96 42.16 13.84 46.12 17.84C48.8359 20.5625 50.7102 24.0096 51.5189 27.7691C52.3275 31.5287 52.0363 35.4416 50.68 39.04C49.92 41.12 47.28 41.64 45.76 40.08Z" fill="white"/>
<path d="M35.64 56.6C35.3605 56.8741 35.0066 57.0601 34.6224 57.135C34.2381 57.2099 33.8403 57.1703 33.4783 57.0213C33.1163 56.8722 32.806 56.6202 32.5859 56.2964C32.3658 55.9727 32.2455 55.5914 32.24 55.2V52H32C26.88 52 21.76 50.04 17.84 46.16C15.1241 43.4375 13.2498 39.9904 12.4411 36.2309C11.6325 32.4713 11.9237 28.5584 13.28 24.96C14.04 22.92 16.72 22.4 18.24 23.96C19.12 24.84 19.32 26.12 18.92 27.24C17.08 32.2 18.12 37.96 22.12 41.96C24.92 44.76 28.6 46.08 32.28 46V42.24C32.28 40.44 34.44 39.56 35.68 40.84L42.16 47.32C42.96 48.12 42.96 49.36 42.16 50.16L35.64 56.6Z" fill="white"/>
<path d="M7.58696 55.9236L7.0916 56.9154L6.67609 55.8876C6.3998 55.2041 6.13272 54.7341 5.72654 54.317C5.31354 53.8928 4.72905 53.4951 3.77241 53.0058L2.82971 52.5236L3.80101 52.102C4.64028 51.7377 5.19412 51.4394 5.61884 51.039C6.03438 50.6472 6.35993 50.1246 6.66836 49.2541L7.04937 48.1787L7.58185 49.1877C8.02049 50.0189 8.38951 50.5659 8.81703 50.9933C9.24172 51.4177 9.74846 51.7483 10.497 52.1106L11.3978 52.5466L10.5083 53.0051C9.62666 53.4595 9.07749 53.8476 8.66352 54.2777C8.24953 54.7078 7.94554 55.2056 7.58696 55.9236Z" fill="#FFC115" stroke="#1F1C23"/>
<path d="M56.2973 18.9248L55.8186 19.877L55.3923 18.9002C54.7486 17.4251 54.1402 16.4107 53.315 15.5785C52.4879 14.7443 51.4131 14.063 49.7886 13.303L48.8031 12.8419L49.7948 12.3944C51.2387 11.7427 52.2531 11.1502 53.0949 10.3328C53.9364 9.51569 54.6355 8.4445 55.3964 6.79096L55.8422 5.8221L56.3018 6.78453C56.9567 8.15599 57.474 9.14715 58.258 10.0017C59.0361 10.8498 60.1057 11.5925 61.9041 12.3933L62.9102 12.8414L61.9107 13.3039C60.4481 13.9806 59.442 14.6197 58.609 15.4557C57.7731 16.2945 57.085 17.358 56.2973 18.9248Z" fill="#FFC115" stroke="#1F1C23"/>
</g>
<defs>
<clipPath id="clip0_9_1027">
<rect width="64" height="64" fill="white"/>
</clipPath>
</defs>
</svg>
