<svg width="24" height="24" viewBox="0 0 24 24" fill="none" xmlns="http://www.w3.org/2000/svg">
<path fill-rule="evenodd" clip-rule="evenodd" d="M9.36246 4.06743C8.9878 4.18733 8.67297 4.46873 8.48443 4.85229L8.38761 5.04922L8.37655 5.98359L8.36553 6.91797L9.08789 6.90833L9.81028 6.89869L9.81992 6.17921L9.82952 5.4597L10.549 5.45009L11.2685 5.44045L11.2782 4.72023L11.2878 4L10.4246 4.00192C9.69675 4.00352 9.53012 4.0138 9.36246 4.06743ZM12.7171 4.72023L12.7268 5.44045L14.1761 5.44974L15.6254 5.45902V4.72951V4H14.1665H12.7075L12.7171 4.72023ZM17.0918 4.72023L17.1015 5.44045L17.821 5.45009L18.5405 5.4597L18.5501 6.17921L18.5597 6.89869L19.2821 6.90833L20.0045 6.91797L19.9935 6.00138L19.9824 5.08479L19.872 4.85193C19.7374 4.56782 19.5776 4.38039 19.3405 4.22866C19.0203 4.02369 18.8742 4 17.9301 4H17.0822L17.0918 4.72023ZM4.96495 8.444C4.5241 8.6033 4.17989 8.96498 4.0516 9.40373C4.00127 9.5758 3.99512 10.0992 3.99512 14.1975C3.99512 18.7536 3.99583 18.8001 4.06863 19.0163C4.20493 19.4209 4.44518 19.6865 4.84705 19.8769L5.0799 19.9873L9.73716 19.9967C13.9133 20.0051 14.4148 20.0002 14.592 19.9493C14.9819 19.8373 15.317 19.5475 15.5094 19.1559L15.6077 18.9558V14.1899V9.42393L15.5118 9.21932C15.3776 8.93307 15.0954 8.64655 14.81 8.50691L14.5762 8.3925L9.86363 8.38464C5.32037 8.37702 5.14435 8.37916 4.96495 8.444ZM18.5504 9.82406L18.5597 11.2734L19.2799 11.283L20.0002 11.2926V9.8337V8.37471H19.2707H18.5411L18.5504 9.82406ZM14.1672 14.1899V18.5468H9.81028H5.45335V14.1899V9.83295H9.81028H14.1672V14.1899ZM18.5656 12.7376C18.5526 12.7506 18.5419 13.0784 18.5419 13.466V14.1706L17.8217 14.1802L17.1015 14.1899L17.0918 14.9123L17.0822 15.6346L18.0166 15.6236L18.9509 15.6125L19.151 15.5143C19.5403 15.323 19.8303 14.989 19.9437 14.6013C19.9883 14.4487 20.0002 14.2301 20.0002 13.561V12.7139H19.2948C18.9068 12.7139 18.5787 12.7245 18.5656 12.7376Z" fill="#FFC115"/>
</svg>
