<?xml version="1.0" encoding="utf-8"?>
<!-- Generator: Adobe Illustrator 23.0.2, SVG Export Plug-In . SVG Version: 6.00 Build 0)  -->
<svg version="1.1" id="Layer_1" xmlns="http://www.w3.org/2000/svg" xmlns:xlink="http://www.w3.org/1999/xlink" x="0px" y="0px"
	 viewBox="0 0 74 74" style="enable-background:new 0 0 74 74;" xml:space="preserve">
<style type="text/css">
	.st0{clip-path:url(#SVGID_2_);}
	.st1{fill:#1F222E;}
	.st2{fill:#FFFFFF;}
	.st3{fill:#FFC115;stroke:#1F1C23;}
</style>
<g>
	<defs>
		<rect id="SVGID_1_" width="74" height="74"/>
	</defs>
	<clipPath id="SVGID_2_">
		<use xlink:href="#SVGID_1_"  style="overflow:visible;"/>
	</clipPath>
	<g class="st0">
		<path class="st1" d="M37,0C16.576,0,0,16.576,0,37s16.576,37,37,37s37-16.576,37-37S57.424,0,37,0z M37,11.1
			c6.142,0,11.1,4.958,11.1,11.1S43.142,33.3,37,33.3s-11.1-4.958-11.1-11.1S30.858,11.1,37,11.1z M37,63.64
			c-4.3961,0-8.7239-1.0879-12.5975-3.1667c-3.8735-2.0788-7.1724-5.0839-9.6025-8.7473C14.911,44.363,29.6,40.33,37,40.33
			c7.363,0,22.089,4.033,22.2,11.396c-2.4301,3.6634-5.729,6.6685-9.6025,8.7473C45.7239,62.5521,41.3961,63.64,37,63.64z"/>
		<path class="st2" d="M37,40.33002c-7.40002,0-22.08899,4.03296-22.20001,11.396c2.43011,3.66339,5.729,6.66846,9.60254,8.74731
			c3.8736,2.0788,8.20135,3.16669,12.59747,3.16669s8.72388-1.08789,12.59747-3.16669
			c3.87354-2.07886,7.17242-5.08392,9.60254-8.74731C59.08899,44.36298,44.36298,40.33002,37,40.33002z"/>
		<circle class="st2" cx="37" cy="22.2" r="11.09998"/>
		<path class="st3" d="M65.6895,5.77659l-0.4954-0.99181L64.7786,5.8126c-0.3779,0.93483-0.74931,1.59299-1.3202,2.17919
			c-0.5776,0.59321-1.3871,1.14105-2.6865,1.8057l-0.9427,0.48221l0.9713,0.4216c1.137,0.4936,1.9096,0.9065,2.5071,1.4698
			c0.5883,0.5546,1.0407,1.2884,1.4633,2.4812l0.381,1.0753l0.5325-1.009c0.5964-1.13,1.1047-1.8868,1.70029-2.4821
			c0.5928-0.5925,1.2965-1.0494,2.318-1.5438l0.9007-0.436l-0.8895-0.45849c-1.2007-0.61894-1.9612-1.15387-2.539-1.75413
			C66.5971,7.4438,66.1769,6.75245,65.6895,5.77659z"/>
		<path class="st3" d="M61.352,55.7754l-0.4787-0.9522L60.447,55.8c-0.8742,2.0032-1.7068,3.3959-2.8434,4.5422
			c-1.1386,1.1483-2.612,2.0794-4.8158,3.1105l-0.9854,0.461l0.9916,0.4476c1.9585,0.8839,3.3508,1.6947,4.5098,2.82
			c1.1587,1.125,2.1142,2.594,3.1473,4.83881l0.4458,0.96889l0.4596-0.96239c0.8848-1.853,1.5935-3.2144,2.6726-4.3906
			c1.0733-1.1699,2.5417-2.1856,4.9851-3.2737l1.0061-0.448l-0.9995-0.4625c-1.9868-0.9194-3.3667-1.7935-4.5124-2.9433
			C63.3599,59.3559,62.42,57.8998,61.352,55.7754z"/>
		<path class="st3" d="M5.7618,13.7495L5.28211,12.921l-0.40585,0.867c-0.26239,0.5606-0.50703,0.9235-0.81049,1.2206
			c-0.30831,0.3018-0.70163,0.5598-1.30055,0.8789l-0.8898,0.4741l0.91594,0.4214c0.59427,0.2734,0.98301,0.5138,1.28454,0.8101
			c0.29881,0.2936,0.5408,0.6708,0.79355,1.2612l0.42554,0.994l0.48175-0.968c0.2921-0.587,0.55284-0.9697,0.85927-1.2721
			c0.30714-0.3031,0.68478-0.55,1.24665-0.8328l0.86523-0.4355l-0.85618-0.4531c-0.5347-0.2829-0.89089-0.5284-1.19571-0.8339
			C6.388,14.7442,6.11124,14.3529,5.7618,13.7495z"/>
	</g>
</g>
</svg>
