<svg width="25" height="25" viewBox="0 0 25 25" fill="none" xmlns="http://www.w3.org/2000/svg">
<g clip-path="url(#clip0_33438_18819)">
<path d="M25 5.11867V19.8816C25 20.8353 24.2295 21.6057 23.2759 21.6057H1.72414C0.770474 21.6057 0 20.8353 0 19.8816V5.11867C0 4.16501 0.770474 3.39453 1.72414 3.39453H23.2759C24.2295 3.39453 25 4.16501 25 5.11867Z" fill="#545FB5"/>
<path d="M25 5.11867V6.45488C25 6.96134 24.569 7.31695 24.181 7.31695C15.1293 7.76414 8.06034 13.1844 5.10237 21.0508C4.97845 21.3848 4.65517 21.6111 4.29418 21.6111H1.72414C0.770474 21.6111 0 20.8407 0 19.887V5.11867C0 4.16501 0.770474 3.39453 1.72414 3.39453H23.2759C24.2295 3.39453 25 4.16501 25 5.11867Z" fill="#603DB0"/>
<path d="M0 7.27344H25V10.9372H0V7.27344Z" fill="#E4E4E4"/>
<path d="M24.4073 7.27344C23.8739 7.44585 18.556 7.18184 13.0226 10.9265C13.0011 10.9426 13.6099 10.9372 0 10.9372V7.27344H24.4073Z" fill="white"/>
<path d="M7.11224 15.4089H3.50232C3.26525 15.4089 3.07129 15.215 3.07129 14.9779C3.07129 14.7408 3.26525 14.5469 3.50232 14.5469H7.11224C7.34931 14.5469 7.54327 14.7408 7.54327 14.9779C7.54327 15.215 7.34931 15.4089 7.11224 15.4089Z" fill="white"/>
<path d="M7.11224 18.1023H3.50232C3.26525 18.1023 3.07129 17.9083 3.07129 17.6713C3.07129 17.4342 3.26525 17.2402 3.50232 17.2402H7.11224C7.34931 17.2402 7.54327 17.4342 7.54327 17.6713C7.54327 17.9083 7.34931 18.1023 7.11224 18.1023Z" fill="white"/>
</g>
<defs>
<clipPath id="clip0_33438_18819">
<rect width="25" height="25" fill="white"/>
</clipPath>
</defs>
</svg>
