<?xml version="1.0" encoding="utf-8"?>
<!-- Generator: Adobe Illustrator 23.0.2, SVG Export Plug-In . SVG Version: 6.00 Build 0)  -->
<svg version="1.1" id="Layer_1" xmlns="http://www.w3.org/2000/svg" xmlns:xlink="http://www.w3.org/1999/xlink" x="0px" y="0px"
	 viewBox="0 0 74 74" style="enable-background:new 0 0 74 74;" xml:space="preserve">
<style type="text/css">
	.st0{clip-path:url(#SVGID_2_);}
	.st1{fill:#1F222E;}
	.st2{fill:#FFFFFF;}
	.st3{fill:#FFC115;stroke:#1F1C23;}
</style>
<g>
	<defs>
		<rect id="SVGID_1_" width="74" height="74"/>
	</defs>
	<clipPath id="SVGID_2_">
		<use xlink:href="#SVGID_1_"  style="overflow:visible;"/>
	</clipPath>
	<g class="st0">
		<circle class="st1" cx="37" cy="37" r="37"/>
		<path class="st2" d="M55.64,25.5455h-33.6c-0.4456,0-0.8729-0.1724-1.1879-0.4793c-0.3151-0.3069-0.4921-0.7231-0.4921-1.1571
			s0.177-0.8502,0.4921-1.1571c0.315-0.3069,0.7423-0.4793,1.1879-0.4793H50.6c0.4456,0,0.8729-0.1724,1.1879-0.4793
			c0.3151-0.3068,0.4921-0.723,0.4921-1.157s-0.177-0.8502-0.4921-1.1571C51.4729,19.1724,51.0456,19,50.6,19H22.04
			c-1.3362,0.0015-2.6173,0.5191-3.5622,1.4395C17.533,21.3598,17.0015,22.6076,17,23.9091v26.1818
			c0.0015,1.3015,0.533,2.5493,1.4778,3.4696c0.9449,0.9204,2.226,1.438,3.5622,1.4395h33.6
			c0.8908-0.001,1.7449-0.3461,2.3748-0.9596C58.6447,53.4268,58.999,52.595,59,51.7273V28.8182
			c-0.001-0.8677-0.3553-1.6996-0.9852-2.3131C57.3849,25.8915,56.5308,25.5464,55.64,25.5455L55.64,25.5455z M48.08,42.7273
			c-0.4984,0-0.9856-0.144-1.4-0.4137c-0.4144-0.2697-0.7374-0.6531-0.9282-1.1016c-0.1907-0.4485-0.2406-0.942-0.1434-1.4181
			c0.0973-0.4762,0.3373-0.9135,0.6897-1.2568c0.3524-0.3433,0.8014-0.577,1.2903-0.6718c0.4888-0.0947,0.9955-0.0461,1.456,0.1397
			c0.4604,0.1858,0.854,0.5004,1.1309,0.9041c0.2769,0.4036,0.4247,0.8782,0.4247,1.3636c0,0.651-0.2655,1.2753-0.7381,1.7357
			C49.3893,42.4687,48.7483,42.7273,48.08,42.7273z"/>
		<path class="st3" d="M4.6895,50.7766l-0.49536-0.9918l-0.41551,1.0278c-0.37791,0.9348-0.74935,1.593-1.32019,2.1792
			c-0.57767,0.5932-1.38712,1.141-2.68658,1.8057l-0.94271,0.4822l0.9713,0.4216c1.13707,0.4936,1.9096,0.9065,2.5071,1.4698
			c0.58832,0.5546,1.04074,1.2884,1.46334,2.4812l0.38102,1.0753l0.53248-1.009c0.59637-1.13,1.10471-1.8868,1.70034-2.4821
			c0.59281-0.5925,1.29645-1.0494,2.31793-1.5438l0.90075-0.436l-0.88949-0.4585c-1.2007-0.6189-1.96124-1.1539-2.53901-1.7541
			C5.59711,52.4438,5.17689,51.7525,4.6895,50.7766z"/>
		<path class="st3" d="M62.352-0.22458L61.8733-1.1768L61.447-0.19999c-0.8742,2.00318-1.7068,3.39584-2.8434,4.54217
			c-1.1386,1.14832-2.612,2.07943-4.8158,3.11049l-0.9854,0.46106l0.9916,0.44756c1.9585,0.88392,3.3508,1.69471,4.5098,2.82001
			c1.1587,1.125,2.1142,2.594,3.1473,4.8388l0.4458,0.9689l0.4596-0.9624c0.8848-1.853,1.5935-3.2144,2.6726-4.3906
			c1.0733-1.1699,2.5417-2.18564,4.9851-3.27369l1.0061-0.44802l-0.9995-0.46251c-1.9868-0.91936-3.3667-1.79351-4.5124-2.94329
			C64.3599,3.3559,63.42,1.89982,62.352-0.22458z"/>
		<path class="st3" d="M61.7618,68.7495l-0.4797-0.8285l-0.4058,0.867c-0.2624,0.5606-0.5071,0.9235-0.8105,1.2206
			c-0.3083,0.3018-0.7017,0.5598-1.3006,0.8789l-0.8898,0.47411l0.916,0.42139c0.5942,0.2734,0.983,0.5138,1.2845,0.8101
			c0.2988,0.2936,0.5408,0.6708,0.7935,1.2612l0.4256,0.994l0.4817-0.96799c0.2921-0.58701,0.5529-0.9697,0.8593-1.2721
			c0.3072-0.3031,0.6848-0.55,1.2467-0.8328l0.8652-0.4355l-0.8562-0.45309c-0.5347-0.28291-0.8909-0.5284-1.1957-0.8339
			C62.388,69.7442,62.1112,69.3529,61.7618,68.7495z"/>
	</g>
</g>
</svg>
