<svg width="30" height="30" viewBox="0 0 30 30" fill="none" xmlns="http://www.w3.org/2000/svg">
<path d="M15 30C23.2843 30 30 23.2843 30 15C30 6.71573 23.2843 0 15 0C6.71573 0 0 6.71573 0 15C0 23.2843 6.71573 30 15 30Z" fill="#58BF00"/>
<path d="M23.4375 21.1687L16.8844 18.1144V11.3456L23.4375 9.02156V21.1687ZM13.8966 24.375L7.5 21.3947V9.33563L13.8966 12.3169V24.375ZM23.2809 8.58469L23.175 8.62219L16.8844 10.8544L16.7269 10.9106L14.0616 11.8556L7.75219 8.91563L16.7269 5.73187L16.8056 5.70375L16.9716 5.64469L17.0297 5.625L23.3391 8.565L23.28 8.58469H23.2809Z" fill="white"/>
</svg>
