<?xml version="1.0" encoding="utf-8"?>
<!-- Generator: Adobe Illustrator 23.0.2, SVG Export Plug-In . SVG Version: 6.00 Build 0)  -->
<svg version="1.1" id="Layer_1" xmlns="http://www.w3.org/2000/svg" xmlns:xlink="http://www.w3.org/1999/xlink" x="0px" y="0px"
	 viewBox="0 0 20 20" style="enable-background:new 0 0 20 20;" xml:space="preserve">
<g>
	<path d="M10,0C4.48584,0,0,4.48584,0,10c0,5.51367,4.48584,10,10,10c5.51367,0,10-4.48633,10-10C20,4.48584,15.51367,0,10,0z
		 M10,18.5c-4.68701,0-8.5-3.81348-8.5-8.5c0-4.68701,3.81299-8.5,8.5-8.5c4.68652,0,8.5,3.81299,8.5,8.5
		C18.5,14.68652,14.68652,18.5,10,18.5z"/>
	<path d="M12.93945,8.02832L10,10.98047L7.06006,8.02832c-0.29248-0.29346-0.7666-0.29443-1.06055-0.00195
		C5.70605,8.31836,5.70508,8.79346,5.99756,9.08691l3.47119,3.48584c0.14063,0.14111,0.33203,0.2207,0.53125,0.2207
		c0.19971,0,0.39063-0.07959,0.53125-0.2207l3.4707-3.48584C14.29492,8.79346,14.29297,8.31836,14,8.02637
		C13.70605,7.73389,13.23193,7.73486,12.93945,8.02832z"/>
</g>
</svg>
