<?xml version="1.0" encoding="utf-8"?>
<!-- Generator: Adobe Illustrator 23.0.2, SVG Export Plug-In . SVG Version: 6.00 Build 0)  -->
<svg version="1.1" id="Layer_1" xmlns="http://www.w3.org/2000/svg" xmlns:xlink="http://www.w3.org/1999/xlink" x="0px" y="0px"
	 viewBox="0 0 56 56" style="enable-background:new 0 0 56 56;" xml:space="preserve">
<style type="text/css">
	.st0{fill:#1F222E;}
	.st1{fill-rule:evenodd;clip-rule:evenodd;fill:#FFFFFF;}
	.st2{fill:#FFC115;stroke:#1F1C23;}
</style>
<g>
	<g>
		<ellipse class="st0" cx="27.3" cy="28.8" rx="26.6" ry="26.6"/>
		<path class="st1" d="M16.3,30.7c0.6-0.3,1.6-0.6,2.4-0.8c0.9-0.2,2.2-0.2,3.1,0c0.7,0.1,10.8,3.5,11.2,3.7
			c1.1,0.7,1.3,2.3,0.4,3.3c-0.4,0.4-0.8,0.6-1.4,0.6c-0.5,0-0.7-0.1-4.1-1.2c-2-0.7-3.7-1.2-3.8-1.2c-0.5,0-0.9,0.4-0.9,1
			c0,0.3,0.2,0.7,0.4,0.8c0.2,0.1,6.6,2.3,7.1,2.4c1.3,0.4,3.1,0.2,4.4-0.5c0.3-0.2,1.6-1,3.3-2.3c1.5-1.1,2.9-2.1,3-2.1
			c0.2-0.1,0.4-0.1,0.9-0.1c0.7,0,1,0.1,1.5,0.6c0.4,0.4,0.6,0.9,0.6,1.5c0,1.1,0,1.2-3.6,3.7c-2.4,1.7-3.2,2.3-4,2.7
			c-2.2,1.1-4.4,1.8-6.7,2.1c-1.2,0.1-3.6,0.1-4.7-0.1c-0.5-0.1-2.8-0.6-5.2-1.1l-4.2-1v-5.8v-5.8L16.3,30.7z M10,32.4
			c0.1-0.1,0.2-0.3,0.3-0.3c0.2-0.1,0.3-0.1,1.9-0.1l1.7,0l0,5.9c0,5.6,0,5.9-0.1,6.1c-0.3,0.4-0.4,0.5-1.9,0.5
			c-1.5,0-1.6,0-1.9-0.5c-0.1-0.2-0.1-0.4-0.1-5.8S9.9,32.6,10,32.4z"/>
		<path class="st1" d="M30.5,15.7c1.2-1.2,2.6-2,4.3-2.3c0.7-0.1,2.2-0.1,2.9,0c3.3,0.6,5.9,3.3,6.5,6.7c0.1,0.8,0.1,2.2,0,3
			c-0.6,3.4-3.2,6.1-6.6,6.7c-0.9,0.2-2.6,0.1-3.4-0.1c-1.4-0.4-2.6-1.1-3.7-2.2c-1.7-1.8-2.5-4-2.3-6.6
			C28.3,18.9,29.1,17.1,30.5,15.7z M35,26v1.2h0.8V26h0.6h0.2v1.2h0.8v-1.3c0.5-0.2,1-0.4,1.3-0.8c0.3-0.4,0.5-0.9,0.5-1.6
			c0-0.5-0.1-0.8-0.2-1.1c-0.1-0.3-0.3-0.5-0.4-0.6c-0.2-0.1-0.4-0.2-0.6-0.3v-0.1c0.3-0.1,0.6-0.3,0.7-0.6c0.2-0.3,0.3-0.8,0.3-1.3
			c0-0.6-0.1-1-0.4-1.4c-0.3-0.3-0.6-0.6-1.1-0.7V16h-0.8v1.3c-0.2,0-0.5,0-0.8,0h0V16H35v1.2h-1.2V26H35z M36,20.7
			c0.4,0,0.7-0.1,0.8-0.3c0.1-0.2,0.2-0.4,0.2-0.7c0-0.3-0.1-0.6-0.3-0.7c-0.2-0.1-0.5-0.2-0.9-0.2h-0.4v1.9H36z M35.6,22.1v2.3h0.6
			c0.4,0,0.7-0.1,0.9-0.3c0.2-0.2,0.2-0.5,0.2-0.9c0-0.3-0.1-0.6-0.2-0.8c-0.2-0.2-0.5-0.3-0.9-0.3H35.6z"/>
		<path class="st2" d="M35.3,1.9L34.8,1l-0.4,1c-0.2,0.5-0.4,0.8-0.7,1.1c-0.3,0.3-0.7,0.6-1.4,0.9l-0.9,0.5l0.9,0.4
			c0.6,0.3,1,0.5,1.3,0.7c0.3,0.3,0.5,0.6,0.7,1.2l0.4,1l0.5-1c0.3-0.6,0.6-1,0.9-1.3c0.3-0.3,0.6-0.5,1.2-0.8l0.9-0.4L37.3,4
			c-0.6-0.3-1-0.6-1.3-0.9C35.8,2.8,35.5,2.4,35.3,1.9z"/>
		<path class="st2" d="M9,43.5l-0.5-0.9l-0.4,0.9c-0.5,1.1-0.9,1.8-1.5,2.4c-0.6,0.6-1.3,1.1-2.5,1.6l-0.9,0.4l0.9,0.4
			c1,0.5,1.8,0.9,2.3,1.5c0.6,0.6,1.1,1.3,1.6,2.5l0.4,0.9L9,52.3c0.5-1,0.8-1.7,1.4-2.3c0.5-0.6,1.3-1.1,2.6-1.7l1-0.4l-1-0.4
			c-1-0.5-1.8-0.9-2.3-1.5C10.1,45.4,9.6,44.6,9,43.5z"/>
		<path class="st2" d="M52.9,37.1l-0.5-0.8l-0.4,0.8c-0.1,0.3-0.3,0.5-0.4,0.6c-0.1,0.1-0.3,0.3-0.6,0.4l-0.9,0.5l0.9,0.4
			c0.3,0.1,0.5,0.3,0.6,0.4c0.1,0.1,0.2,0.3,0.4,0.6l0.4,1l0.5-0.9c0.1-0.3,0.3-0.5,0.4-0.6c0.1-0.1,0.3-0.3,0.6-0.4l0.8-0.4
			L54,38.1c-0.3-0.1-0.4-0.3-0.6-0.4C53.2,37.6,53.1,37.4,52.9,37.1z"/>
	</g>
</g>
</svg>
