<svg width="20" height="20" viewBox="0 0 20 20" fill="none" xmlns="http://www.w3.org/2000/svg">
<path d="M18.9243 1.50595e-06H1.09333C0.778837 -0.000593372 0.49052 0.175093 0.346759 0.454883C0.201014 0.73844 0.226594 1.0799 0.41279 1.33887L6.94532 10.5412C6.9475 10.5444 6.94988 10.5473 6.95206 10.5505C7.18941 10.871 7.31771 11.259 7.3185 11.658V19.1605C7.31711 19.3828 7.40436 19.5962 7.56101 19.7538C7.71766 19.9115 7.93063 19.9999 8.15272 19.9999C8.26574 19.9999 8.37738 19.9773 8.48168 19.9341L12.1525 18.5343C12.4814 18.434 12.6997 18.1237 12.6997 17.7499V11.658C12.7003 11.2592 12.8288 10.871 13.066 10.5505C13.0682 10.5473 13.0706 10.5444 13.0727 10.5412L19.6051 1.33847C19.7913 1.0797 19.8168 0.73844 19.6711 0.454883C19.5273 0.175093 19.239 -0.000593372 18.9243 1.50595e-06ZM12.2474 9.94909C11.8826 10.4442 11.6853 11.0429 11.6841 11.658V17.6266L8.33376 18.904V11.658C8.33257 11.0429 8.13527 10.4442 7.77021 9.94909L1.42824 1.01526H18.5896L12.2474 9.94909Z" fill="#D0D9DE"/>
</svg>
