<?xml version="1.0" encoding="utf-8"?>
<!-- Generator: Adobe Illustrator 23.0.2, SVG Export Plug-In . SVG Version: 6.00 Build 0)  -->
<svg version="1.1" id="Layer_1" xmlns="http://www.w3.org/2000/svg" xmlns:xlink="http://www.w3.org/1999/xlink" x="0px" y="0px"
	 viewBox="0 0 56 56" style="enable-background:new 0 0 56 56;" xml:space="preserve">
<style type="text/css">
	.st0{fill:#1F222E;}
	.st1{fill:#FFFFFF;}
	.st2{fill:#FFC115;stroke:#1F1C23;}
</style>
<g>
	<g>
		<ellipse class="st0" cx="29" cy="28.1" rx="25.8" ry="25.9"/>
		<path class="st1" d="M42.6,39.8h-2v2c0,0.6-0.2,1-0.6,1.4c-0.4,0.4-0.9,0.6-1.4,0.6c-0.5,0-1-0.2-1.4-0.6
			c-0.4-0.4-0.6-0.8-0.6-1.4v-2h-2c-0.6,0-1-0.2-1.4-0.6c-0.4-0.4-0.6-0.9-0.6-1.4s0.2-1,0.6-1.4c0.4-0.4,0.8-0.6,1.4-0.6h2v-2
			c0-0.6,0.2-1,0.6-1.4c0.4-0.4,0.8-0.6,1.4-0.6c0.5,0,1,0.2,1.4,0.6c0.4,0.4,0.6,0.8,0.6,1.4v2h2c0.5,0,1,0.2,1.4,0.6
			c0.4,0.4,0.6,0.8,0.6,1.4s-0.2,1-0.6,1.4C43.6,39.6,43.1,39.8,42.6,39.8z M34.9,31.9c-0.7,0.5-1.4,1-2.2,1.3v0.9
			c-0.6,0.2-1,0.6-1.4,1.1c-0.4,0.5-0.6,1.1-0.6,1.7v2c0,0.8,0.3,1.5,0.9,2.1c0.6,0.6,1.3,0.9,2.1,0.9h1v1.9c-1.4,0-3.4,0.1-5.9,0.1
			h-2.3l-2.5,0l-2.7-0.1l-2.5-0.1l-2.3-0.3l-1.8-0.4l-1.3-0.5L13,41.7c0-1.8,1.2-3.4,3.4-4.8c2.2-1.4,5-2.3,8.5-2.8v-1
			c-1.1-0.5-2-1.1-2.8-2c-0.8-0.9-1.4-1.9-1.9-3c-0.5-1.2-0.8-2.4-1-3.7c-0.2-1.3-0.3-2.8-0.3-4.3c0-1.3,0.3-2.5,0.8-3.5
			c0.5-1,1.2-1.8,2.1-2.5c0.9-0.6,1.9-1.1,3.1-1.4c1.2-0.3,2.5-0.5,3.9-0.5s2.7,0.2,3.9,0.5c1.2,0.3,2.2,0.8,3.1,1.4
			c0.9,0.6,1.6,1.5,2.1,2.5c0.5,1,0.8,2.2,0.8,3.5c0,4.5-0.8,7.9-2.3,10.2C35.6,30.6,35.1,31.2,34.9,31.9z"/>
		<path class="st2" d="M6.6,37.7l-0.5-0.9l-0.4,1c-0.3,0.6-0.5,1.1-0.9,1.5C4.4,39.6,3.9,40,3,40.5l-0.9,0.4L3,41.3
			c0.8,0.3,1.3,0.6,1.7,1c0.4,0.4,0.7,0.9,1,1.7l0.4,1l0.5-0.9c0.4-0.8,0.8-1.3,1.2-1.7c0.4-0.4,0.9-0.7,1.6-1.1l0.8-0.4l-0.8-0.4
			C8.5,40,8,39.7,7.6,39.3C7.2,38.9,6.9,38.4,6.6,37.7z"/>
		<path class="st2" d="M46.8,2.1l-0.4-0.9l-0.4,0.9c-0.6,1.4-1.2,2.4-2,3.1c-0.8,0.8-1.8,1.4-3.3,2.2l-0.9,0.4l0.9,0.4
			c1.4,0.6,2.3,1.2,3.1,1.9c0.8,0.8,1.5,1.8,2.2,3.3l0.4,0.9l0.4-0.9c0.6-1.3,1.1-2.2,1.8-3c0.7-0.8,1.7-1.5,3.4-2.3L53,7.8
			l-0.9-0.4c-1.4-0.6-2.3-1.2-3.1-2C48.2,4.5,47.5,3.5,46.8,2.1z"/>
		<path class="st2" d="M46.4,50.3l-0.4-0.8l-0.4,0.8c-0.2,0.4-0.3,0.6-0.5,0.8c-0.2,0.2-0.5,0.4-0.9,0.6l-0.8,0.4l0.9,0.4
			c0.4,0.2,0.7,0.3,0.9,0.5c0.2,0.2,0.4,0.4,0.5,0.8l0.4,0.9l0.4-0.9c0.2-0.4,0.4-0.7,0.6-0.9c0.2-0.2,0.5-0.4,0.8-0.6l0.8-0.4
			l-0.8-0.4c-0.4-0.2-0.6-0.4-0.8-0.6C46.8,50.9,46.6,50.7,46.4,50.3z"/>
	</g>
</g>
</svg>
