<svg width="10" height="14" viewBox="0 0 10 14" fill="none" xmlns="http://www.w3.org/2000/svg">
<path opacity="0.5" d="M1.0522 12.8453C1.32039 12.8453 1.58998 12.7435 1.79498 12.54L6.6911 7.70118C6.88908 7.50456 7 7.23822 7 6.95932C7 6.68183 6.88908 6.41549 6.6911 6.21887L1.79498 1.3773C1.38357 0.970122 0.718027 0.970122 0.306624 1.38009C-0.103375 1.79006 -0.101971 2.45243 0.309432 2.85961L4.45576 6.95932L0.309432 11.059C-0.101971 11.4662 -0.103375 12.1272 0.306624 12.5372C0.511624 12.7435 0.782616 12.8453 1.0522 12.8453Z" fill="#B0BFC6"/>
<path d="M8 12.5V1.5C8 1.22386 8.22386 1 8.5 1C8.77614 1 9 1.22386 9 1.5V12.5C9 12.7761 8.77614 13 8.5 13C8.22386 13 8 12.7761 8 12.5Z" stroke="white"/>
</svg>
