<svg width="10" height="14" viewBox="0 0 10 14" fill="none" xmlns="http://www.w3.org/2000/svg">
<path opacity="0.5" d="M8.9478 12.8453C8.67961 12.8453 8.41002 12.7435 8.20502 12.54L3.3089 7.70118C3.11092 7.50456 3 7.23822 3 6.95932C3 6.68183 3.11092 6.41549 3.3089 6.21887L8.20502 1.3773C8.61643 0.970122 9.28197 0.970122 9.69338 1.38009C10.1034 1.79006 10.102 2.45243 9.69057 2.85961L5.54424 6.95932L9.69057 11.059C10.102 11.4662 10.1034 12.1272 9.69338 12.5372C9.48838 12.7435 9.21738 12.8453 8.9478 12.8453Z" fill="#B0BFC6"/>
<path d="M1 12.5V1.5C1 1.22386 1.22386 1 1.5 1C1.77614 1 2 1.22386 2 1.5V12.5C2 12.7761 1.77614 13 1.5 13C1.22386 13 1 12.7761 1 12.5Z" stroke="white"/>
</svg>
