<svg width="12" height="12" viewBox="0 0 12 12" fill="none" xmlns="http://www.w3.org/2000/svg">
<path fill-rule="evenodd" clip-rule="evenodd" d="M4.90164 7.62629C5.21387 7.83795 5.59441 7.96594 5.99934 7.96594C7.07265 7.96594 7.94594 7.08481 7.94594 6.00185C7.94594 5.59328 7.81909 5.20932 7.60931 4.89427L7.07753 5.43083C7.16535 5.5982 7.21414 5.7951 7.21414 6.00185C7.21414 6.67623 6.66772 7.22756 5.99934 7.22756C5.79444 7.22756 5.59929 7.17833 5.43341 7.08973L4.90164 7.62629ZM9.2144 3.27476C9.92181 3.92453 10.5219 4.80075 10.9707 5.85417C11.0098 5.9477 11.0098 6.05599 10.9707 6.1446C9.92669 8.59603 8.06791 10.0629 5.99934 10.0629H5.99446C5.05288 10.0629 4.15032 9.75282 3.35509 9.18673L2.40862 10.1417C2.33544 10.2155 2.24275 10.25 2.15005 10.25C2.05736 10.25 1.95979 10.2155 1.89148 10.1417C1.76952 10.0186 1.75 9.82174 1.84758 9.67899L1.86221 9.6593L9.0778 2.37885C9.08755 2.36901 9.09731 2.35916 9.10219 2.34932L9.10219 2.34931C9.11195 2.33947 9.12171 2.32963 9.12658 2.31978L9.58518 1.85707C9.73154 1.71431 9.96084 1.71431 10.1023 1.85707C10.2487 1.99982 10.2487 2.2361 10.1023 2.37885L9.2144 3.27476ZM4.04918 6.00377C4.04918 6.13175 4.06382 6.25974 4.08333 6.37788L2.27822 8.19922C1.79035 7.62821 1.3659 6.93905 1.02927 6.14652C0.990243 6.05791 0.990243 5.94962 1.02927 5.85609C2.07331 3.40466 3.93209 1.94267 5.99578 1.94267H6.00066C6.69831 1.94267 7.37645 2.11003 8.00092 2.42508L6.37144 4.06921C6.25435 4.04952 6.1275 4.03475 6.00066 4.03475C4.92247 4.03475 4.04918 4.91588 4.04918 6.00377Z" fill="#B0BFC6"/>
</svg>
