<svg width="13" height="13" viewBox="0 0 13 13" fill="none" xmlns="http://www.w3.org/2000/svg">
<mask id="path-1-inside-1_33438_18364" fill="white">
<path d="M13 7.71939C13 7.39386 12.8705 7.09052 12.6474 6.8668C12.9003 6.59002 13.0293 6.21896 12.994 5.83277C12.9307 5.1443 12.3104 4.6048 11.5814 4.6048H8.2355C8.40125 4.10158 8.66666 3.17914 8.66666 2.43814C8.66666 1.26327 7.66838 0.271484 7.04166 0.271484C6.47941 0.271484 6.07694 0.588359 6.06016 0.601359C5.99569 0.652826 5.95832 0.730826 5.95832 0.813143V2.64993L4.39778 6.02939L4.33332 6.06243V5.95896C4.33332 5.80946 4.21197 5.68812 4.06247 5.68812H1.35416C0.607217 5.68814 0 6.29536 0 7.0423V11.3756C0 12.1226 0.607217 12.7298 1.35416 12.7298H2.97916C3.56469 12.7298 4.06519 12.3561 4.25369 11.8344C4.70437 12.0663 5.31103 12.1881 5.6875 12.1881H10.6595C11.2493 12.1881 11.7656 11.7906 11.8869 11.2424C11.9492 10.9596 11.9129 10.6753 11.7894 10.4283C12.1891 10.2273 12.4583 9.81402 12.4583 9.34439C12.4583 9.15264 12.4145 8.96902 12.3316 8.80327C12.7313 8.60177 13 8.18902 13 7.71939ZM11.8576 8.3878C11.7531 8.40027 11.6648 8.47121 11.6312 8.57143C11.5982 8.67164 11.6258 8.78158 11.7027 8.85418C11.8403 8.98364 11.9167 9.15805 11.9167 9.34439C11.9167 9.68618 11.6583 9.97327 11.3165 10.0128C11.212 10.0253 11.1237 10.0962 11.0901 10.1964C11.0571 10.2966 11.0847 10.4066 11.1616 10.4792C11.3398 10.6471 11.4113 10.8827 11.3577 11.1254C11.2911 11.4276 10.9975 11.6465 10.6595 11.6465H5.6875C5.24766 11.6465 4.50991 11.4401 4.25425 11.1839C4.17678 11.107 4.05978 11.0842 3.95903 11.1254C3.85775 11.1671 3.79166 11.2662 3.79166 11.3756C3.79166 11.8236 3.42712 12.1881 2.97916 12.1881H1.35416C0.906191 12.1881 0.541658 11.8236 0.541658 11.3756V7.0423C0.541658 6.59433 0.906191 6.2298 1.35416 6.2298H3.79166V6.50064C3.79166 6.59436 3.84041 6.68155 3.92057 6.73139C3.99966 6.77905 4.09932 6.78393 4.18382 6.74277L4.72547 6.47193C4.78019 6.44483 4.82407 6.39933 4.85007 6.34355L6.47507 2.82271C6.49132 2.78696 6.49997 2.74796 6.49997 2.70896V0.959926C6.61266 0.897643 6.80822 0.813143 7.04166 0.813143C7.3385 0.813143 8.125 1.55089 8.125 2.43814C8.125 3.39148 7.60609 4.76568 7.60122 4.77923C7.56981 4.86211 7.58063 4.95583 7.631 5.02948C7.68191 5.10261 7.76534 5.14648 7.85416 5.14648H11.5814C12.0331 5.14648 12.4166 5.46986 12.4545 5.88261C12.4832 6.19136 12.3348 6.48495 12.0689 6.64908C11.986 6.69998 11.9367 6.79208 11.9405 6.89011C11.9443 6.98814 12.0006 7.07589 12.0873 7.12086C12.3164 7.23733 12.4583 7.46698 12.4583 7.71939C12.4583 8.06118 12.2 8.34827 11.8576 8.3878Z"/>
</mask>
<path d="M13 7.71939C13 7.39386 12.8705 7.09052 12.6474 6.8668C12.9003 6.59002 13.0293 6.21896 12.994 5.83277C12.9307 5.1443 12.3104 4.6048 11.5814 4.6048H8.2355C8.40125 4.10158 8.66666 3.17914 8.66666 2.43814C8.66666 1.26327 7.66838 0.271484 7.04166 0.271484C6.47941 0.271484 6.07694 0.588359 6.06016 0.601359C5.99569 0.652826 5.95832 0.730826 5.95832 0.813143V2.64993L4.39778 6.02939L4.33332 6.06243V5.95896C4.33332 5.80946 4.21197 5.68812 4.06247 5.68812H1.35416C0.607217 5.68814 0 6.29536 0 7.0423V11.3756C0 12.1226 0.607217 12.7298 1.35416 12.7298H2.97916C3.56469 12.7298 4.06519 12.3561 4.25369 11.8344C4.70437 12.0663 5.31103 12.1881 5.6875 12.1881H10.6595C11.2493 12.1881 11.7656 11.7906 11.8869 11.2424C11.9492 10.9596 11.9129 10.6753 11.7894 10.4283C12.1891 10.2273 12.4583 9.81402 12.4583 9.34439C12.4583 9.15264 12.4145 8.96902 12.3316 8.80327C12.7313 8.60177 13 8.18902 13 7.71939ZM11.8576 8.3878C11.7531 8.40027 11.6648 8.47121 11.6312 8.57143C11.5982 8.67164 11.6258 8.78158 11.7027 8.85418C11.8403 8.98364 11.9167 9.15805 11.9167 9.34439C11.9167 9.68618 11.6583 9.97327 11.3165 10.0128C11.212 10.0253 11.1237 10.0962 11.0901 10.1964C11.0571 10.2966 11.0847 10.4066 11.1616 10.4792C11.3398 10.6471 11.4113 10.8827 11.3577 11.1254C11.2911 11.4276 10.9975 11.6465 10.6595 11.6465H5.6875C5.24766 11.6465 4.50991 11.4401 4.25425 11.1839C4.17678 11.107 4.05978 11.0842 3.95903 11.1254C3.85775 11.1671 3.79166 11.2662 3.79166 11.3756C3.79166 11.8236 3.42712 12.1881 2.97916 12.1881H1.35416C0.906191 12.1881 0.541658 11.8236 0.541658 11.3756V7.0423C0.541658 6.59433 0.906191 6.2298 1.35416 6.2298H3.79166V6.50064C3.79166 6.59436 3.84041 6.68155 3.92057 6.73139C3.99966 6.77905 4.09932 6.78393 4.18382 6.74277L4.72547 6.47193C4.78019 6.44483 4.82407 6.39933 4.85007 6.34355L6.47507 2.82271C6.49132 2.78696 6.49997 2.74796 6.49997 2.70896V0.959926C6.61266 0.897643 6.80822 0.813143 7.04166 0.813143C7.3385 0.813143 8.125 1.55089 8.125 2.43814C8.125 3.39148 7.60609 4.76568 7.60122 4.77923C7.56981 4.86211 7.58063 4.95583 7.631 5.02948C7.68191 5.10261 7.76534 5.14648 7.85416 5.14648H11.5814C12.0331 5.14648 12.4166 5.46986 12.4545 5.88261C12.4832 6.19136 12.3348 6.48495 12.0689 6.64908C11.986 6.69998 11.9367 6.79208 11.9405 6.89011C11.9443 6.98814 12.0006 7.07589 12.0873 7.12086C12.3164 7.23733 12.4583 7.46698 12.4583 7.71939C12.4583 8.06118 12.2 8.34827 11.8576 8.3878Z" fill="#B0BFC6"/>
<path d="M12.6474 6.8668L11.1711 5.51753L9.88271 6.92719L11.2314 8.27925L12.6474 6.8668ZM12.994 5.83277L14.9858 5.65114L14.9856 5.64944L12.994 5.83277ZM8.2355 4.6048L6.33589 3.97911L5.47104 6.6048H8.2355V4.6048ZM6.06016 0.601359L4.83543 -0.979789L4.82382 -0.970799L4.81235 -0.961639L6.06016 0.601359ZM5.95832 2.64993L7.77408 3.48839L7.95832 3.0894V2.64993H5.95832ZM4.39778 6.02939L5.30983 7.80933L5.92416 7.49454L6.21354 6.86785L4.39778 6.02939ZM4.33332 6.06243H2.33332V9.33451L5.24536 7.84236L4.33332 6.06243ZM1.35416 5.68812V3.68812H1.35409L1.35416 5.68812ZM4.25369 11.8344L5.16858 10.0559L3.14582 9.0154L2.37274 11.1547L4.25369 11.8344ZM11.8869 11.2424L13.8396 11.6746L13.8401 11.6726L11.8869 11.2424ZM11.7894 10.4283L10.891 8.64137L9.10804 9.53774L10.0005 11.3227L11.7894 10.4283ZM12.3316 8.80327L11.4314 7.01733L9.65121 7.91464L10.5427 9.69769L12.3316 8.80327ZM11.8576 8.3878L11.6282 6.40099L11.6208 6.40187L11.8576 8.3878ZM11.6312 8.57143L9.73474 7.93623L9.73174 7.94533L11.6312 8.57143ZM11.7027 8.85418L10.3299 10.3086L10.3322 10.3107L11.7027 8.85418ZM11.3165 10.0128L11.0867 8.02603L11.0797 8.02687L11.3165 10.0128ZM11.0901 10.1964L9.19364 9.56122L9.19064 9.57033L11.0901 10.1964ZM11.1616 10.4792L9.78881 11.9336L9.79013 11.9349L11.1616 10.4792ZM11.3577 11.1254L9.40482 10.6939L9.4046 10.6949L11.3577 11.1254ZM4.25425 11.1839L5.67002 9.77121L5.66334 9.76457L4.25425 11.1839ZM3.95903 11.1254L3.20267 9.27392L3.19735 9.27611L3.95903 11.1254ZM3.79166 6.2298H5.79166V4.2298H3.79166V6.2298ZM3.92057 6.73139L2.86449 8.42983L2.87636 8.43722L2.88834 8.44444L3.92057 6.73139ZM4.18382 6.74277L5.05961 8.54082L5.06897 8.53626L5.07828 8.5316L4.18382 6.74277ZM4.72547 6.47193L3.83803 4.67958L3.83101 4.68309L4.72547 6.47193ZM4.85007 6.34355L6.66285 7.18847L6.66599 7.18167L4.85007 6.34355ZM6.47507 2.82271L8.29102 3.66084L8.2958 3.65032L6.47507 2.82271ZM6.49997 0.959926L5.53247 -0.790487L4.49997 -0.219797V0.959926H6.49997ZM7.60122 4.77923L9.47141 5.48801L9.47748 5.47202L9.48326 5.45592L7.60122 4.77923ZM7.631 5.02948L5.98015 6.15851L5.98484 6.16537L5.9896 6.1722L7.631 5.02948ZM12.4545 5.88261L10.4629 6.06553L10.4631 6.06783L12.4545 5.88261ZM12.0689 6.64908L13.1157 8.35324L13.1192 8.35105L12.0689 6.64908ZM12.0873 7.12086L11.1661 8.89609L11.1736 8.89995L11.181 8.90375L12.0873 7.12086ZM12.4583 7.71939H10.4583V7.71954L12.4583 7.71939ZM15 7.71939C15 6.85552 14.6543 6.04675 14.0634 5.45436L11.2314 8.27925C11.0868 8.13429 11 7.9322 11 7.71939H15ZM14.1237 8.21607C14.7529 7.52759 15.0725 6.60201 14.9858 5.65114L11.0023 6.01439C10.986 5.8359 11.0478 5.65245 11.1711 5.51753L14.1237 8.21607ZM14.9856 5.64944C14.8197 3.84727 13.2569 2.6048 11.5814 2.6048V6.6048C11.4501 6.6048 11.3246 6.5564 11.2251 6.46991C11.125 6.38292 11.022 6.22875 11.0025 6.0161L14.9856 5.64944ZM11.5814 2.6048H8.2355V6.6048H11.5814V2.6048ZM10.1351 5.23049C10.3041 4.71748 10.6667 3.52785 10.6667 2.43814H6.66666C6.66666 2.59779 6.63431 2.85101 6.56222 3.1707C6.49363 3.47487 6.40596 3.76637 6.33589 3.97911L10.1351 5.23049ZM10.6667 2.43814C10.6667 1.29135 10.1888 0.311897 9.62771 -0.363616C9.34196 -0.707659 8.99628 -1.02072 8.60481 -1.26056C8.23779 -1.48543 7.69382 -1.72852 7.04166 -1.72852V2.27148C6.86061 2.27148 6.727 2.2367 6.65268 2.21165C6.57617 2.18587 6.53092 2.15987 6.51511 2.15018C6.48708 2.13301 6.50848 2.14132 6.55064 2.19209C6.58983 2.23927 6.62314 2.2948 6.64419 2.34737C6.6645 2.39811 6.66666 2.42853 6.66666 2.43814H10.6667ZM7.04166 -1.72852C6.38781 -1.72852 5.85401 -1.54598 5.49962 -1.38037C5.31836 -1.29566 5.16948 -1.20865 5.05723 -1.13623C5.00061 -1.0997 4.9522 -1.06616 4.91252 -1.03748C4.89262 -1.0231 4.87514 -1.0101 4.86021 -0.998786C4.84532 -0.98751 4.83191 -0.977066 4.83543 -0.979789L7.28489 2.18251C7.2905 2.17816 7.28221 2.1846 7.27533 2.18981C7.26842 2.19505 7.26185 2.19991 7.25566 2.20439C7.2434 2.21325 7.23357 2.2199 7.22583 2.2249C7.21134 2.23425 7.20136 2.2396 7.1931 2.24346C7.1847 2.24739 7.13326 2.27148 7.04166 2.27148V-1.72852ZM4.81235 -0.961639C4.27096 -0.529423 3.95832 0.124545 3.95832 0.813143H7.95832C7.95832 1.33711 7.72043 1.83508 7.30797 2.16436L4.81235 -0.961639ZM3.95832 0.813143V2.64993H7.95832V0.813143H3.95832ZM4.14256 1.81146L2.58202 5.19093L6.21354 6.86785L7.77408 3.48839L4.14256 1.81146ZM3.48574 4.24946L3.42127 4.28249L5.24536 7.84236L5.30983 7.80933L3.48574 4.24946ZM6.33332 6.06243V5.95896H2.33332V6.06243H6.33332ZM6.33332 5.95896C6.33332 4.70489 5.31654 3.68812 4.06247 3.68812V7.68812C3.10741 7.68812 2.33332 6.91403 2.33332 5.95896H6.33332ZM4.06247 3.68812H1.35416V7.68812H4.06247V3.68812ZM1.35409 3.68812C-0.497355 3.68818 -2 5.19078 -2 7.0423H2C2 7.39994 1.71179 7.68811 1.35423 7.68812L1.35409 3.68812ZM-2 7.0423V11.3756H2V7.0423H-2ZM-2 11.3756C-2 13.2272 -0.497329 14.7298 1.35416 14.7298V10.7298C1.71176 10.7298 2 11.018 2 11.3756H-2ZM1.35416 14.7298H2.97916V10.7298H1.35416V14.7298ZM2.97916 14.7298C4.43534 14.7298 5.66951 13.8013 6.13464 12.5141L2.37274 11.1547C2.46087 10.9108 2.69404 10.7298 2.97916 10.7298V14.7298ZM3.3388 13.6129C4.09302 14.0009 5.01671 14.1881 5.6875 14.1881V10.1881C5.69553 10.1881 5.67401 10.1884 5.62347 10.1819C5.57563 10.1757 5.51668 10.1654 5.45242 10.1504C5.31215 10.1177 5.21162 10.0781 5.16858 10.0559L3.3388 13.6129ZM5.6875 14.1881H10.6595V10.1881H5.6875V14.1881ZM10.6595 14.1881C12.118 14.1881 13.501 13.2047 13.8396 11.6746L9.93413 10.8102C10.0301 10.3764 10.3807 10.1881 10.6595 10.1881V14.1881ZM13.8401 11.6726C13.9995 10.9487 13.9094 10.1962 13.5782 9.53384L10.0005 11.3227C9.91636 11.1544 9.8988 10.9706 9.9337 10.8122L13.8401 11.6726ZM12.6877 12.2152C13.7423 11.685 14.4583 10.5927 14.4583 9.34439H10.4583C10.4583 9.03532 10.6359 8.76963 10.891 8.64137L12.6877 12.2152ZM14.4583 9.34439C14.4583 8.84382 14.3429 8.35379 14.1204 7.90884L10.5427 9.69769C10.486 9.58425 10.4583 9.46146 10.4583 9.34439H14.4583ZM13.2318 10.5892C14.285 10.0583 15 8.96742 15 7.71939H11C11 7.41061 11.1777 7.14519 11.4314 7.01733L13.2318 10.5892ZM11.6208 6.40187C10.7579 6.50478 10.0169 7.09378 9.73477 7.93623L13.5277 9.20662C13.3126 9.84863 12.7482 10.2958 12.0945 10.3737L11.6208 6.40187ZM9.73174 7.94533C9.45646 8.78049 9.68717 9.70195 10.3299 10.3086L13.0755 7.39974C13.5644 7.86122 13.7399 8.56279 13.5307 9.19753L9.73174 7.94533ZM10.3322 10.3107C10.0765 10.0702 9.91668 9.72104 9.91668 9.34439H13.9167C13.9167 8.59506 13.6041 7.89712 13.0733 7.39761L10.3322 10.3107ZM9.91668 9.34439C9.91668 8.65563 10.4344 8.1015 11.0867 8.02605L11.5463 11.9996C12.8822 11.845 13.9167 10.7167 13.9167 9.34439H9.91668ZM11.0797 8.02687C10.2168 8.12978 9.47583 8.71878 9.19367 9.56123L12.9866 10.8316C12.7715 11.4736 12.2071 11.9208 11.5534 11.9987L11.0797 8.02687ZM9.19064 9.57033C8.91536 10.4055 9.14607 11.3269 9.78881 11.9336L12.5344 9.02474C13.0233 9.48622 13.1988 10.1878 12.9896 10.8225L9.19064 9.57033ZM9.79013 11.9349C9.44643 11.611 9.30933 11.126 9.40482 10.6939L13.3106 11.5569C13.5133 10.6394 13.2332 9.68313 12.5331 9.02349L9.79013 11.9349ZM9.4046 10.6949C9.56591 9.96305 10.1845 9.64648 10.6595 9.64648V13.6465C11.8104 13.6465 13.0163 12.8922 13.3108 11.5559L9.4046 10.6949ZM10.6595 9.64648H5.6875V13.6465H10.6595V9.64648ZM5.6875 9.64648C5.70854 9.64648 5.71488 9.6476 5.70494 9.64663C5.69597 9.64575 5.67898 9.64368 5.6548 9.63949C5.60447 9.63079 5.54587 9.61693 5.49076 9.59995C5.46426 9.59179 5.44286 9.58422 5.42724 9.57816C5.41114 9.57191 5.40603 9.56916 5.41073 9.57148C5.41425 9.57322 5.43827 9.58517 5.47631 9.61038C5.49603 9.62345 5.52271 9.64221 5.55422 9.66733C5.58551 9.69227 5.62544 9.72656 5.67001 9.77122L2.83849 12.5966C3.33171 13.0909 3.98496 13.3216 4.31286 13.4226C4.71475 13.5464 5.21339 13.6465 5.6875 13.6465V9.64648ZM5.66334 9.76457C5.01083 9.11677 4.03954 8.93206 3.20268 9.27393L4.71539 12.9769C4.08003 13.2364 3.34274 13.0972 2.84516 12.6032L5.66334 9.76457ZM3.19735 9.27611C2.34394 9.62762 1.79166 10.4589 1.79166 11.3756H5.79166C5.79166 12.0736 5.37156 12.7066 4.72072 12.9747L3.19735 9.27611ZM1.79166 11.3756C1.79166 10.719 2.32255 10.1881 2.97916 10.1881V14.1881C4.53169 14.1881 5.79166 12.9282 5.79166 11.3756H1.79166ZM2.97916 10.1881H1.35416V14.1881H2.97916V10.1881ZM1.35416 10.1881C2.01076 10.1881 2.54166 10.719 2.54166 11.3756H-1.45834C-1.45834 12.9282 -0.198378 14.1881 1.35416 14.1881V10.1881ZM2.54166 11.3756V7.0423H-1.45834V11.3756H2.54166ZM2.54166 7.0423C2.54166 7.6989 2.01076 8.2298 1.35416 8.2298V4.2298C-0.198381 4.2298 -1.45834 5.48977 -1.45834 7.0423H2.54166ZM1.35416 8.2298H3.79166V4.2298H1.35416V8.2298ZM1.79166 6.2298V6.50064H5.79166V6.2298H1.79166ZM1.79166 6.50064C1.79166 7.2926 2.20331 8.01872 2.86449 8.42983L4.97664 5.03295C5.47751 5.34439 5.79166 5.89612 5.79166 6.50064H1.79166ZM2.88834 8.44444C3.54737 8.84155 4.36518 8.87906 5.05961 8.54082L3.30802 4.94472C3.83346 4.68879 4.45195 4.71656 4.95279 5.01835L2.88834 8.44444ZM5.07828 8.5316L5.61994 8.26076L3.83101 4.68309L3.28935 4.95393L5.07828 8.5316ZM5.61291 8.26426C6.08478 8.03062 6.44973 7.64567 6.66283 7.18846L3.0373 5.49864C3.1984 5.153 3.4756 4.85905 3.83804 4.67959L5.61291 8.26426ZM6.66599 7.18167L8.29099 3.66082L4.65915 1.98459L3.03415 5.50544L6.66599 7.18167ZM8.2958 3.65032C8.42679 3.36214 8.49997 3.04157 8.49997 2.70896H4.49997C4.49997 2.45435 4.55584 2.21178 4.65433 1.9951L8.2958 3.65032ZM8.49997 2.70896V0.959926H4.49997V2.70896H8.49997ZM7.46747 2.71034C7.4333 2.72923 7.38622 2.75202 7.32419 2.77148C7.26177 2.79106 7.16532 2.81314 7.04166 2.81314V-1.18686C6.34213 -1.18686 5.80482 -0.941018 5.53247 -0.790487L7.46747 2.71034ZM7.04166 2.81314C6.6978 2.81314 6.45608 2.71588 6.3697 2.67797C6.26185 2.63064 6.19494 2.58504 6.16863 2.56613C6.11567 2.52805 6.11027 2.51375 6.12634 2.53406C6.17299 2.59301 6.125 2.57437 6.125 2.43814H10.125C10.125 1.41467 9.68376 0.583525 9.26295 0.0517909C9.04529 -0.223251 8.7876 -0.477435 8.50369 -0.681567C8.31599 -0.81652 7.77468 -1.18686 7.04166 -1.18686V2.81314ZM6.125 2.43814C6.125 2.62848 6.05964 2.99202 5.93933 3.42069C5.83132 3.80556 5.72477 4.08697 5.71917 4.10254L9.48326 5.45592C9.48253 5.45794 9.63788 5.04548 9.79054 4.50153C9.93091 4.00137 10.125 3.20115 10.125 2.43814H6.125ZM5.73102 4.07046C5.46921 4.76129 5.55834 5.54174 5.98015 6.15851L9.28185 3.90046C9.60291 4.36991 9.67041 4.96293 9.47141 5.48801L5.73102 4.07046ZM5.9896 6.1722C6.41114 6.7777 7.10517 7.14648 7.85416 7.14648V3.14648C8.42552 3.14648 8.95268 3.42752 9.2724 3.88677L5.9896 6.1722ZM7.85416 7.14648H11.5814V3.14648H7.85416V7.14648ZM11.5814 7.14648C11.1437 7.14648 10.5322 6.81973 10.4629 6.06553L14.4462 5.69969C14.3011 4.11999 12.9226 3.14648 11.5814 3.14648V7.14648ZM10.4631 6.06783C10.4203 5.60689 10.6488 5.17528 11.0185 4.9471L13.1192 8.35105C14.0209 7.79463 14.5462 6.77583 14.4459 5.69739L10.4631 6.06783ZM11.022 4.94492C10.3215 5.37527 9.91043 6.14942 9.94199 6.96723L13.939 6.81298C13.963 7.43473 13.6505 8.0247 13.1157 8.35324L11.022 4.94492ZM9.94199 6.96723C9.97378 7.79108 10.4477 8.52329 11.1661 8.89609L13.0084 5.34563C13.5536 5.6285 13.9148 6.1852 13.939 6.81298L9.94199 6.96723ZM11.181 8.90375C10.751 8.68518 10.4583 8.23305 10.4583 7.71939H14.4583C14.4583 6.70092 13.8818 5.78948 12.9935 5.33797L11.181 8.90375ZM10.4583 7.71954C10.4583 7.02969 10.9771 6.47619 11.6282 6.401L12.0871 10.3746C13.4228 10.2203 14.4584 9.09266 14.4583 7.71924L10.4583 7.71954Z" fill="#B0BFC6" mask="url(#path-1-inside-1_33438_18364)"/>
</svg>
