<?xml version="1.0" encoding="utf-8"?>
<!-- Generator: Adobe Illustrator 23.0.2, SVG Export Plug-In . SVG Version: 6.00 Build 0)  -->
<svg version="1.1" id="Layer_1" xmlns="http://www.w3.org/2000/svg" xmlns:xlink="http://www.w3.org/1999/xlink" x="0px" y="0px"
	 viewBox="0 0 56 56" style="enable-background:new 0 0 56 56;" xml:space="preserve">
<style type="text/css">
	.st0{clip-path:url(#SVGID_2_);}
	.st1{fill:#1F222E;}
	.st2{fill:#FFFFFF;}
	.st3{fill:#FFC115;stroke:#1F1C23;}
</style>
<g>
	<defs>
		<rect id="SVGID_1_" x="0.3" y="0.3" width="55.7" height="55.7"/>
	</defs>
	<clipPath id="SVGID_2_">
		<use xlink:href="#SVGID_1_"  style="overflow:visible;"/>
	</clipPath>
	<g class="st0">
		
			<ellipse transform="matrix(0.3827 -0.9239 0.9239 0.3827 -8.6377 43.4209)" class="st1" cx="28.2" cy="28.2" rx="27.8" ry="27.8"/>
		<path class="st2" d="M33,23.7c4.2,4.1,4.1,10.6,0,14.7c0,0,0,0,0,0L28.2,43C24.1,47,17.3,47,13.1,43C9,38.9,9,32.3,13.1,28.3
			l2.6-2.5c0.7-0.7,1.9-0.2,1.9,0.7c0,1.2,0.3,2.4,0.7,3.6c0.1,0.4,0,0.8-0.3,1.1l-0.9,0.9c-2,1.9-2,5-0.1,7c2,2,5.2,2,7.2,0
			l4.7-4.6c2-1.9,2-5,0-7c-0.3-0.3-0.5-0.4-0.7-0.6c-0.1-0.1-0.3-0.2-0.3-0.4c-0.1-0.1-0.1-0.3-0.1-0.5c0-0.7,0.2-1.5,0.8-2l1.5-1.4
			c0.4-0.4,1-0.4,1.4-0.1C32,22.8,32.5,23.2,33,23.7z M42.9,14C38.7,10,31.9,10,27.8,14L23,18.6c0,0,0,0,0,0c-4.1,4-4.2,10.6,0,14.7
			c0.4,0.4,0.9,0.8,1.4,1.2c0.5,0.3,1.1,0.3,1.4-0.1l1.5-1.4c0.6-0.6,0.9-1.3,0.8-2c0-0.2-0.1-0.3-0.1-0.5c-0.1-0.1-0.2-0.3-0.3-0.4
			c-0.2-0.1-0.5-0.3-0.7-0.6c-2-1.9-2-5,0-7l4.7-4.6c2-1.9,5.2-1.9,7.2,0c2,1.9,1.9,5.1-0.1,7l-0.9,0.9c-0.3,0.3-0.4,0.7-0.3,1.1
			c0.4,1.2,0.6,2.4,0.7,3.6c0,1,1.2,1.4,1.9,0.7l2.6-2.5C47,24.7,47,18.1,42.9,14z"/>
		<path class="st3" d="M49.9,4.6l-0.5-1l-0.4,1c-0.3,0.7-0.6,1.2-1,1.6c-0.4,0.4-1,0.8-2,1.3l-0.9,0.5l1,0.4
			c0.9,0.4,1.4,0.7,1.8,1.1c0.4,0.4,0.8,0.9,1.1,1.8l0.4,1.1l0.5-1c0.4-0.8,0.8-1.4,1.3-1.8c0.4-0.4,0.9-0.8,1.7-1.1l0.9-0.4
			l-0.9-0.5c-0.9-0.5-1.5-0.9-1.9-1.3C50.5,5.9,50.2,5.4,49.9,4.6z"/>
		<path class="st3" d="M46.6,42.2l-0.5-1l-0.4,1c-0.7,1.5-1.3,2.5-2.1,3.4c-0.8,0.8-1.9,1.5-3.6,2.3l-1,0.5l1,0.4
			c1.5,0.7,2.5,1.3,3.4,2.1c0.9,0.8,1.6,1.9,2.3,3.6l0.4,1l0.5-1c0.7-1.4,1.2-2.4,2-3.3c0.8-0.9,1.9-1.6,3.7-2.4l1-0.4l-1-0.5
			c-1.5-0.7-2.5-1.3-3.4-2.2C48.1,44.9,47.4,43.8,46.6,42.2z"/>
		<path class="st3" d="M4.8,10.6L4.3,9.8l-0.4,0.9c-0.2,0.4-0.4,0.7-0.6,0.9c-0.2,0.2-0.5,0.4-0.9,0.6l-0.9,0.5l0.9,0.4
			c0.4,0.2,0.7,0.4,0.9,0.6c0.2,0.2,0.4,0.5,0.6,0.9l0.4,1l0.5-1c0.2-0.4,0.4-0.7,0.6-0.9c0.2-0.2,0.5-0.4,0.9-0.6l0.9-0.4l-0.9-0.5
			c-0.4-0.2-0.7-0.4-0.9-0.6C5.2,11.4,5,11.1,4.8,10.6z"/>
	</g>
</g>
</svg>
