<svg width="30" height="28" viewBox="0 0 30 28" fill="none" xmlns="http://www.w3.org/2000/svg">
<path d="M3.66665 14C3.66665 10.6991 5.11165 7.7383 7.37831 5.66996L9.54581 7.83746C9.64568 7.93536 9.77229 8.0015 9.90969 8.02756C10.0471 8.05361 10.1891 8.03841 10.3179 7.98387C10.4467 7.92933 10.5564 7.83789 10.6333 7.72108C10.7102 7.60427 10.7508 7.46731 10.75 7.32746V1.24996C10.75 0.853298 10.4383 0.541631 10.0416 0.541631H3.96415C3.32665 0.541631 3.01498 1.30663 3.46831 1.7458L5.36665 3.6583C2.58998 6.23663 0.833313 9.9058 0.833313 14C0.833313 20.7291 5.53665 26.3675 11.8266 27.8125C12.7191 28.0108 13.5833 27.345 13.5833 26.4241C13.5833 25.7583 13.1158 25.1916 12.4641 25.0358C7.43498 23.8883 3.66665 19.3833 3.66665 14ZM29.1666 14C29.1666 7.2708 24.4633 1.63246 18.1733 0.187464C17.2808 -0.0108689 16.4166 0.654965 16.4166 1.5758C16.4166 2.24163 16.8841 2.8083 17.5358 2.96413C22.565 4.11163 26.3333 8.61663 26.3333 14C26.3333 17.3008 24.8883 20.2616 22.6216 22.33L20.4541 20.1625C20.3543 20.0646 20.2277 19.9984 20.0903 19.9724C19.9529 19.9463 19.8108 19.9615 19.6821 20.0161C19.5533 20.0706 19.4435 20.162 19.3666 20.2788C19.2898 20.3957 19.2492 20.5326 19.25 20.6725V26.75C19.25 27.1466 19.5616 27.4583 19.9583 27.4583H26.0358C26.6733 27.4583 26.985 26.6933 26.5316 26.2541L24.6333 24.3416C27.41 21.7633 29.1666 18.0941 29.1666 14Z" fill="#D0D9DE"/>
</svg>
