<svg width="64" height="64" viewBox="0 0 64 64" fill="none" xmlns="http://www.w3.org/2000/svg">
<g clip-path="url(#clip0_9_989)">
<circle cx="32" cy="32" r="32" fill="#1F222E"/>
<path d="M46.5 49C48.433 49 50 47.433 50 45.5C50 43.567 48.433 42 46.5 42C44.567 42 43 43.567 43 45.5C43 47.433 44.567 49 46.5 49Z" fill="white"/>
<path d="M24.5 49C26.433 49 28 47.433 28 45.5C28 43.567 26.433 42 24.5 42C22.567 42 21 43.567 21 45.5C21 47.433 22.567 49 24.5 49Z" fill="white"/>
<path d="M49.449 37.6452H25.2306L25.7478 36.7377C25.9696 36.3485 26.0348 35.878 25.9285 35.4352L25.4237 33.3334L47.9003 32.0703C48.7526 32.0233 49.449 31.229 49.449 30.3065V19.1935C49.449 18.271 48.751 17.5161 47.898 17.5161H21.6229L21.3197 16.2555C21.2333 15.896 21.039 15.5777 20.7673 15.3504C20.4955 15.1232 20.1618 14.9999 19.8183 15H14.551C14.1397 15 13.7452 15.1767 13.4543 15.4913C13.1634 15.8059 13 16.2325 13 16.6774C13 17.1223 13.1634 17.549 13.4543 17.8635C13.7452 18.1781 14.1397 18.3548 14.551 18.3548H18.6193L22.7606 35.5861L21.132 38.4419C20.9871 38.696 20.9077 38.9874 20.9018 39.2858C20.8959 39.5842 20.9639 39.879 21.0987 40.1395C21.2329 40.4003 21.4291 40.6176 21.667 40.7689C21.9049 40.9202 22.1759 41 22.4519 41H49.449C49.8603 41 50.2548 40.8233 50.5457 40.5087C50.8366 40.1941 51 39.7675 51 39.3226C51 38.8777 50.8366 38.451 50.5457 38.1365C50.2548 37.8219 49.8603 37.6452 49.449 37.6452Z" fill="white"/>
<path d="M5.58696 14.7766L5.0916 13.7848L4.67609 14.8126C4.3998 15.4961 4.13272 15.9661 3.72654 16.3832C3.31354 16.8073 2.72905 17.2051 1.77241 17.6944L0.829706 18.1766L1.80101 18.5982C2.64028 18.9625 3.19412 19.2608 3.61884 19.6612C4.03438 20.053 4.35993 20.5756 4.66836 21.4461L5.04937 22.5215L5.58185 21.5125C6.02049 20.6813 6.38951 20.1342 6.81703 19.7069C7.24172 19.2825 7.74846 18.9519 8.49703 18.5896L9.39777 18.1536L8.50829 17.6951C7.62666 17.2407 7.07749 16.8525 6.66352 16.4225C6.24953 15.9924 5.94554 15.4945 5.58696 14.7766Z" fill="#FFC115" stroke="#1F1C23"/>
<path d="M54.2973 51.7754L53.8186 50.8232L53.3923 51.8C52.7486 53.2751 52.1402 54.2894 51.315 55.1217C50.4879 55.9559 49.4131 56.6372 47.7886 57.3972L46.8031 57.8583L47.7948 58.3058C49.2387 58.9575 50.2531 59.55 51.0949 60.3674C51.9364 61.1845 52.6355 62.2557 53.3964 63.9092L53.8422 64.8781L54.3018 63.9157C54.9567 62.5442 55.474 61.553 56.258 60.6985C57.0361 59.8504 58.1057 59.1077 59.9041 58.3069L60.9102 57.8588L59.9107 57.3963C58.4481 56.7196 57.442 56.0805 56.609 55.2445C55.7731 54.4057 55.085 53.3422 54.2973 51.7754Z" fill="#FFC115" stroke="#1F1C23"/>
</g>
<defs>
<clipPath id="clip0_9_989">
<rect width="64" height="64" fill="white"/>
</clipPath>
</defs>
</svg>
