<svg width="182" height="182" viewBox="0 0 182 182" fill="none" xmlns="http://www.w3.org/2000/svg">
<circle opacity="0.05" cx="91" cy="91" r="91" fill="#C4C4C4"/>
<path d="M77.3066 93.9904C89.8592 89.2457 102.832 86.7232 116.165 85.582C103.193 88.4049 90.2796 91.3478 77.3066 93.9904Z" fill="#FFC115"/>
<path d="M114.183 76.3919C100.79 78.6742 87.5765 81.7973 73.6426 85.5211C77.9669 82.0376 109.619 74.8904 114.183 76.3919Z" fill="#FFC115"/>
<path d="M111.18 67.7432C98.0866 70.4459 85.0536 73.3889 71.1797 76.512C74.7232 73.8093 107.456 66.6622 111.18 67.7432Z" fill="#FFC115"/>
<path d="M75.8047 57.7149C82.7116 55.793 89.6185 54.1714 96.8257 53.8711C96.8858 54.2315 96.9458 54.5318 97.0059 54.8921C89.9789 56.0933 82.9518 57.2345 75.9248 58.4357C75.8647 58.1954 75.8647 57.9552 75.8047 57.7149Z" fill="#FFC115"/>
<path d="M139.348 106.844C140.969 109.546 142.591 112.189 144.213 114.892C144.693 115.733 144.573 116.333 143.792 116.874C141.57 118.435 139.228 119.697 136.765 120.778C136.285 120.958 135.744 121.138 135.444 120.597C135.083 119.937 135.624 119.516 136.165 119.216C137.786 118.435 139.348 117.594 141.029 116.934C142.651 116.273 143.071 115.552 141.87 113.991C140.369 111.949 139.107 109.667 139.348 106.844Z" fill="white"/>
<path d="M71.0596 124.023C70.9995 124.144 70.9395 124.264 70.9995 124.324C71.2398 124.624 71.5401 124.924 71.7203 125.225C73.462 128.528 75.1437 131.891 76.8254 135.255C77.0656 135.735 77.6062 136.336 76.9455 136.816C76.2248 137.357 75.8644 136.636 75.6242 136.156C73.5221 132.672 72.0806 128.888 70.459 125.225C70.0386 124.324 71.2398 124.624 71.0596 124.023Z" fill="white"/>
<path d="M65.0537 137.656C67.0958 141.56 69.0777 145.524 71.1198 149.428C71.36 149.969 71.7804 150.569 71.0597 150.93C70.5192 151.23 70.1588 150.689 69.9186 150.269C67.6363 146.305 65.4741 142.341 65.0537 137.656Z" fill="white"/>
<path d="M119.889 47.3866C118.688 43.4226 118.207 39.3385 118.087 35.1944C118.087 34.7139 118.147 34.1133 118.808 34.1133C119.408 34.1133 119.588 34.7139 119.588 35.1944C120.009 39.1583 120.369 43.1824 120.73 47.1463C120.489 47.2664 120.189 47.3265 119.889 47.3866Z" fill="white"/>
<path d="M55.6846 116.332C53.2221 112.908 52.0209 108.944 52.141 104.5C53.6425 108.284 55.2041 112.068 56.7056 115.851C56.4053 116.032 56.0449 116.152 55.6846 116.332Z" fill="white"/>
<path d="M40.2491 72.369C38.2071 68.5251 37.7867 64.2609 38.087 59.8164C39.108 63.9005 40.129 67.9846 41.2101 72.0687C40.9098 72.1888 40.6095 72.3089 40.2491 72.369Z" fill="white"/>
<path d="M62.5313 132.431C59.9488 129.308 58.9878 125.525 58.4473 121.621C58.6875 121.5 58.9277 121.44 59.168 121.32C60.5494 124.924 61.9908 128.467 63.3722 132.071C63.132 132.191 62.8316 132.311 62.5313 132.431Z" fill="white"/>
<path d="M115.084 31.1687C115.685 31.3489 118.087 30.448 118.027 31.5891C117.967 33.3309 115.685 32.43 114.364 32.6702C112.322 33.0906 110.28 33.2708 108.177 33.451C107.697 33.511 106.856 33.7513 106.736 32.9104C106.616 32.1297 107.397 32.0095 107.937 31.8894C110.099 31.469 112.201 30.8684 115.084 31.1687Z" fill="white"/>
<path d="M43.9732 45.7031C44.9942 49.7872 46.0153 53.9314 47.1564 58.4959C44.754 56.6941 43.0723 50.0875 43.9732 45.7031Z" fill="white"/>
<path d="M61.5709 102.28C59.0484 98.8562 57.7271 94.9523 57.9673 90.5078C59.4688 94.2916 60.9703 98.1354 62.5319 101.919C62.2316 102.039 61.8712 102.159 61.5709 102.28Z" fill="white"/>
<path d="M91.9609 34.9525C94.3633 32.5501 100.009 31.8294 103.553 33.2708C99.3483 33.9315 95.6246 34.472 91.9609 34.9525Z" fill="white"/>
<path d="M68.357 118.497C65.7745 115.314 64.7534 111.53 64.2129 107.566C64.4531 107.446 64.6934 107.386 64.9336 107.266C66.3751 110.929 67.7564 114.593 69.1979 118.257C68.8976 118.317 68.5973 118.377 68.357 118.497Z" fill="white"/>
<path d="M125.655 136.216C123.132 137.898 120.49 139.219 117.487 139.819C116.886 139.94 116.165 140.06 115.985 139.339C115.745 138.618 116.526 138.438 117.066 138.198C119.829 137.237 122.592 136.336 125.415 135.375C125.415 135.735 125.535 135.976 125.655 136.216Z" fill="white"/>
<path d="M76.165 36.8736C79.5284 35.4922 83.0119 34.5913 86.7356 34.5312C86.7957 34.7715 86.8557 35.0117 86.9158 35.312C83.4323 36.2129 79.9488 37.1739 76.4653 38.0748C76.3452 37.6544 76.2251 37.234 76.165 36.8736Z" fill="white"/>
<path d="M57.366 41.8008C54.6633 43.6626 51.6002 44.3233 48.5371 45.1641C48.0567 45.2843 47.4561 45.044 47.4561 44.5035C47.4561 43.9629 47.9365 43.7227 48.4771 43.6026C51.36 42.7617 54.2428 41.8008 57.366 41.8008Z" fill="white"/>
<path d="M132.321 92.7891C134.544 95.3716 135.685 98.5548 136.946 101.678C137.126 102.098 136.886 102.459 136.465 102.579C136.045 102.699 135.685 102.459 135.504 102.098C134.123 99.0954 132.742 96.1524 132.321 92.7891Z" fill="white"/>
<path d="M127.156 78.9766C129.018 81.379 129.859 84.2018 130.88 86.9645C131.12 87.6252 131.06 88.2258 130.339 88.406C129.799 88.5261 129.559 87.9856 129.378 87.5051C128.357 84.7423 127.276 82.0396 127.156 78.9766Z" fill="white"/>
<path d="M70.6999 38.8565C67.9972 40.418 64.9341 40.8985 61.9912 41.7393C61.5707 41.8595 61.2104 41.7393 61.0903 41.2589C60.9701 40.5982 61.5107 40.358 61.9311 40.2378C64.7539 39.4571 67.5767 38.7363 70.4596 38.0156C70.5197 38.3159 70.6398 38.5562 70.6999 38.8565Z" fill="white"/>
<path d="M120.97 52.3711C121.57 55.0738 122.111 57.7765 122.651 60.5393C122.711 60.8396 122.471 61.3801 122.231 61.5002C121.63 61.8005 121.33 61.32 121.15 60.8396C120.429 58.0768 119.769 55.314 120.97 52.3711Z" fill="white"/>
<path d="M131.361 121.918C128.598 124.2 125.535 125.642 121.871 125.642C124.574 123.359 128.117 123.119 131.361 121.918Z" fill="white"/>
<path d="M139.709 129.064C137.306 131.046 134.604 132.548 131.661 133.689C131.12 133.869 130.64 133.929 130.459 133.329C130.219 132.728 130.7 132.428 131.18 132.248C133.883 130.926 136.646 129.605 139.348 128.344C139.408 128.584 139.589 128.824 139.709 129.064Z" fill="white"/>
<path d="M43.0118 78.0156C43.9127 80.7183 44.8136 83.421 45.7145 86.1237C45.8947 86.6643 46.3151 87.385 45.5944 87.6853C44.6334 88.0457 44.5734 87.0847 44.3331 86.4841C43.252 83.7814 42.4112 81.0787 43.0118 78.0156Z" fill="white"/>
<path d="M122.832 64.2031C124.634 67.6866 125.354 70.6296 126.255 73.5124C126.436 73.9929 126.556 74.5335 125.955 74.7737C125.354 75.074 124.934 74.5935 124.814 74.113C124.153 71.1701 122.772 68.2872 122.832 64.2031Z" fill="white"/>
<path d="M94.0032 144.984C91.4807 146.666 88.5378 147.026 85.7149 147.507C85.4146 147.567 84.8741 147.327 84.754 147.086C84.4537 146.426 84.9942 146.245 85.5348 146.125C88.2975 145.465 91.0603 144.684 94.0032 144.984Z" fill="white"/>
<path d="M48.7177 63.9023C49.6787 66.7252 50.6397 69.548 51.6006 72.4309C51.7207 72.8513 51.8409 73.4519 51.1201 73.572C50.4595 73.6921 50.3394 73.1516 50.1592 72.6711C49.018 69.9684 48.3574 67.0855 48.7177 63.9023Z" fill="white"/>
<path d="M99.8282 130.867C97.3057 132.548 94.4228 132.789 91.7201 133.509C91.2396 133.63 90.639 133.69 90.5189 133.029C90.3988 132.368 90.9393 132.128 91.4198 132.068C94.1826 131.347 96.8853 130.566 99.8282 130.867Z" fill="white"/>
<path d="M109.979 140.477C107.877 142.699 105.294 143.6 102.532 143.9C102.051 143.96 101.51 143.9 101.39 143.239C101.33 142.819 101.691 142.579 102.111 142.459C104.754 141.798 107.396 141.137 109.979 140.477Z" fill="white"/>
<path d="M115.805 126.363C113.823 128.766 111.06 129.366 108.297 129.907C107.757 130.027 107.276 129.727 107.276 129.186C107.276 128.886 107.697 128.465 107.997 128.345C110.58 127.625 113.222 127.024 115.805 126.363Z" fill="white"/>
<path d="M105.294 101.259C102.231 102.58 98.9879 103.061 95.6846 102.821C98.7476 101.439 101.991 101.019 105.294 101.259Z" fill="#FFC115"/>
<path d="M50.2796 100.597C48.3576 98.6154 47.9973 96.0328 47.0964 93.6304C46.7961 92.8496 47.2766 92.8496 47.6369 92.6094C47.697 92.6094 47.9973 92.9097 48.0573 93.1499C48.9582 95.5523 50.5198 97.8346 50.2796 100.597Z" fill="white"/>
<path d="M53.042 78.0156C54.4834 80.7784 55.9849 83.5412 56.1651 86.7243C53.8828 84.2619 53.2222 81.1988 53.042 78.0156Z" fill="white"/>
<path d="M107.036 108.225C104.273 109.667 101.27 110.027 98.207 109.967C100.97 108.586 103.853 107.685 107.036 108.225Z" fill="#FFC115"/>
<path d="M87.3966 134.354C84.9942 134.714 83.4927 134.955 81.9912 135.135C81.4507 135.195 80.9702 135.015 80.9102 134.474C80.9102 134.234 81.3306 133.693 81.5708 133.693C83.2525 133.573 84.9942 132.552 87.3966 134.354Z" fill="white"/>
<path d="M75.084 148.467C77.0059 147.806 78.8077 146.965 80.7296 148.046C78.9278 149.007 77.066 149.488 75.084 148.467Z" fill="white"/>
</svg>
