<svg width="12" height="12" viewBox="0 0 12 12" fill="none" xmlns="http://www.w3.org/2000/svg">
<path d="M9.87543 3.42857L7.69035 1.212V3.42857H9.87543ZM10.2252 4.28571H6.84539V0.857143H1.77563V11.1429H10.2252V4.28571ZM1.35314 0H7.69035L11.0702 3.42857V11.5714C11.0702 11.6851 11.0257 11.7941 10.9465 11.8745C10.8672 11.9548 10.7598 12 10.6477 12H1.35314C1.2411 12 1.13364 11.9548 1.05441 11.8745C0.975175 11.7941 0.930664 11.6851 0.930664 11.5714V0.428571C0.930664 0.314907 0.975175 0.205898 1.05441 0.125526C1.13364 0.0451529 1.2411 0 1.35314 0ZM5.55683 7.79657L7.94638 5.37257L8.54377 5.97857L5.55683 9.00857L3.46555 6.888L4.06294 6.28114L5.55683 7.79657Z" fill="#FFC115"/>
</svg>
