<svg width="64" height="64" viewBox="0 0 64 64" fill="none" xmlns="http://www.w3.org/2000/svg">
<g clip-path="url(#clip0_9_1008)">
<circle cx="32" cy="32" r="32" fill="#1F222E"/>
<path d="M34.9167 40C34.9167 40 33 40 33 38.0833C33 36.1667 34.9167 30.4167 44.5 30.4167C54.0833 30.4167 56 36.1667 56 38.0833C56 40 54.0833 40 54.0833 40H34.9167ZM44.5 28.5C46.025 28.5 47.4875 27.8942 48.5659 26.8159C49.6442 25.7375 50.25 24.275 50.25 22.75C50.25 21.225 49.6442 19.7625 48.5659 18.6841C47.4875 17.6058 46.025 17 44.5 17C42.975 17 41.5125 17.6058 40.4341 18.6841C39.3558 19.7625 38.75 21.225 38.75 22.75C38.75 24.275 39.3558 25.7375 40.4341 26.8159C41.5125 27.8942 42.975 28.5 44.5 28.5V28.5Z" fill="white"/>
<path d="M14.749 47C14.7495 47 14.75 47 14.75 46V47H42.25V46C42.25 47 42.2505 47 42.251 47L42.2521 47L42.2544 47L42.2599 47L42.274 46.9998C42.28 46.9997 42.2868 46.9995 42.2945 46.9994C42.3006 46.9992 42.3071 46.999 42.3142 46.9988C42.3461 46.9977 42.3884 46.9957 42.4394 46.9921C42.5412 46.9848 42.6801 46.9708 42.8441 46.9434C43.1674 46.8895 43.6137 46.7799 44.0722 46.5507C44.5346 46.3195 45.0274 45.957 45.4024 45.3945C45.7815 44.8258 46 44.1125 46 43.25C46 41.6182 45.213 38.6113 42.6134 36.0116C39.9844 33.3827 35.5859 31.25 28.5 31.25C21.4141 31.25 17.0156 33.3827 14.3866 36.0116C11.787 38.6113 11 41.6182 11 43.25C11 44.1125 11.2185 44.8258 11.5976 45.3945C11.9726 45.957 12.4654 46.3195 12.9278 46.5507C13.3863 46.7799 13.8326 46.8895 14.1559 46.9434C14.3199 46.9708 14.4588 46.9848 14.5606 46.9921C14.6116 46.9957 14.6539 46.9977 14.6858 46.9988C14.7018 46.9993 14.7152 46.9996 14.726 46.9998L14.7401 47L14.7456 47L14.7479 47L14.749 47ZM28.5 30.5C30.9533 30.5 33.306 29.5254 35.0407 27.7907C36.7754 26.056 37.75 23.7033 37.75 21.25C37.75 18.7967 36.7754 16.444 35.0407 14.7093C33.306 12.9746 30.9533 12 28.5 12C26.0467 12 23.694 12.9746 21.9593 14.7093C20.2246 16.444 19.25 18.7967 19.25 21.25C19.25 23.7033 20.2246 26.056 21.9593 27.7907C23.694 29.5254 26.0467 30.5 28.5 30.5Z" fill="white" stroke="#1F222E" stroke-width="2"/>
<path d="M58.1142 8.77659L58.6096 7.78477L59.0251 8.8126C59.3014 9.49605 59.5685 9.96612 59.9746 10.3832C60.3876 10.8073 60.9721 11.2051 61.9288 11.6944L62.8715 12.1766L61.9002 12.5982C61.0609 12.9625 60.507 13.2608 60.0823 13.6612C59.6668 14.053 59.3412 14.5756 59.0328 15.4461L58.6518 16.5215L58.1193 15.5125C57.6807 14.6813 57.3117 14.1342 56.8841 13.7069C56.4594 13.2825 55.9527 12.9519 55.2041 12.5896L54.3034 12.1536L55.1929 11.6951C56.0745 11.2407 56.6237 10.8525 57.0376 10.4225C57.4516 9.99236 57.7556 9.49455 58.1142 8.77659Z" fill="#FFC115" stroke="#1F1C23"/>
<path d="M9.40386 45.7754L9.88255 44.8232L10.3088 45.8C10.9526 47.2751 11.5609 48.2894 12.3861 49.1217C13.2133 49.9559 14.2881 50.6372 15.9126 51.3972L16.898 51.8583L15.9064 52.3058C14.4625 52.9575 13.4481 53.55 12.6062 54.3674C11.7647 55.1845 11.0657 56.2557 10.3048 57.9092L9.85896 58.8781L9.39939 57.9157C8.7445 56.5442 8.22717 55.553 7.44317 54.6985C6.66503 53.8504 5.59544 53.1077 3.79708 52.3069L2.79097 51.8588L3.7905 51.3963C5.25303 50.7196 6.25916 50.0805 7.09219 49.2445C7.92803 48.4057 8.61621 47.3422 9.40386 45.7754Z" fill="#FFC115" stroke="#1F1C23"/>
</g>
<defs>
<clipPath id="clip0_9_1008">
<rect width="64" height="64" fill="white"/>
</clipPath>
</defs>
</svg>
