<svg width="12" height="12" viewBox="0 0 12 12" fill="none" xmlns="http://www.w3.org/2000/svg">
<circle cx="6" cy="6" r="5.5" stroke="white"/>
<path d="M4 8.5V3.5C4 3.22386 4.22386 3 4.5 3C4.77614 3 5 3.22386 5 3.5V8.5C5 8.77614 4.77614 9 4.5 9C4.22386 9 4 8.77614 4 8.5Z" fill="white" stroke="white" stroke-width="0.5"/>
<path d="M7 8.5V3.5C7 3.22386 7.22386 3 7.5 3C7.77614 3 8 3.22386 8 3.5V8.5C8 8.77614 7.77614 9 7.5 9C7.22386 9 7 8.77614 7 8.5Z" fill="white" stroke="white" stroke-width="0.5"/>
</svg>
