<?xml version="1.0" encoding="utf-8"?>
<!-- Generator: Adobe Illustrator 23.0.2, SVG Export Plug-In . SVG Version: 6.00 Build 0)  -->
<svg version="1.1" id="Layer_1" xmlns="http://www.w3.org/2000/svg" xmlns:xlink="http://www.w3.org/1999/xlink" x="0px" y="0px"
	 viewBox="0 0 33 33" style="enable-background:new 0 0 33 33;" xml:space="preserve">
<path d="M13.7975,0.85156l11.4189,3.56742c0.3184,0.09942,0.5968,0.29803,0.7944,0.56685
	c0.1976,0.26882,0.3041,0.59376,0.304,0.92739v2.76162h3.1293c0.4149,0,0.8129,0.16485,1.1063,0.45827
	c0.2935,0.29344,0.4583,0.69141,0.4583,1.10639v3.1293H10.6682v-3.1293c0-0.41498,0.1649-0.81295,0.4583-1.10639
	c0.2934-0.29342,0.6914-0.45827,1.1064-0.45827h10.9525v-1.6116l-9.3879-2.93529L4.40958,7.06324V18.6479
	c-0.00022,0.958,0.21945,1.9032,0.64208,2.7628c0.42264,0.8597,1.03696,1.6108,1.79566,2.1956l0.29572,0.2128l6.65446,4.5391
	l5.9175-4.0368h-7.4821c-0.415,0-0.813-0.1649-1.1064-0.4583s-0.4583-0.6914-0.4583-1.1064v-6.2586h20.3405v6.2586
	c0,0.415-0.1648,0.813-0.4583,1.1064c-0.2934,0.2934-0.6914,0.4583-1.1063,0.4583l-5.0382,0.0016
	c-0.6055,0.7979-1.3409,1.502-2.1905,2.0809l-8.4179,5.7408l-8.41783-5.7392c-1.26342-0.8614-2.2973-2.0184-3.01174-3.3704
	c-0.71444-1.352-1.08781-2.858-1.08766-4.3872V5.91322C1.28046,5.57986,1.38712,5.25527,1.5847,4.98677
	c0.19757-0.26851,0.47574-0.46689,0.79396-0.56623L13.7975,0.85156z"/>
</svg>
