<svg width="20" height="20" viewBox="0 0 20 20" fill="none" xmlns="http://www.w3.org/2000/svg">
<path d="M19.86 8.81519C19.7924 8.40889 19.394 8.1321 18.9702 8.19692C18.5464 8.26174 18.2577 8.64368 18.3253 9.04998C18.3261 9.05443 18.3268 9.05884 18.3276 9.06325C19.119 13.5292 15.9842 17.7645 11.3259 18.5231C6.66761 19.2818 2.24986 16.2764 1.45854 11.8105C0.667215 7.34461 3.80205 3.1093 8.46029 2.35066C11.325 1.88412 14.241 2.84347 16.2032 4.89814L12.7608 5.99769C12.3536 6.12759 12.1334 6.54934 12.2688 6.93975C12.2689 6.93984 12.2689 6.93997 12.269 6.94005C12.4045 7.33046 12.8444 7.5416 13.2516 7.41174C13.2518 7.4117 13.2518 7.41165 13.2519 7.41165L17.9143 5.92174C18.2317 5.82038 18.4458 5.53556 18.4458 5.21478V0.74498C18.4458 0.333532 18.0979 0 17.6687 0C17.2396 0 16.8917 0.333532 16.8917 0.74498V3.46632C12.8899 -0.182677 6.56025 -0.0306424 2.75407 3.80587C-1.05211 7.64239 -0.893576 13.7106 3.10825 17.3597C7.11008 21.0087 13.4397 20.8567 17.2459 17.0201C19.4163 14.8323 20.3849 11.7922 19.86 8.81519Z" fill="#D0D9DE"/>
</svg>
