<svg width="12" height="13" viewBox="0 0 12 13" fill="none" xmlns="http://www.w3.org/2000/svg">
<path d="M11.8626 1.26182C11.8626 0.983512 11.6405 0.757901 11.3665 0.757901L6.90203 0.757901C6.62806 0.757901 6.40597 0.983512 6.40597 1.26182C6.40597 1.54012 6.62806 1.76573 6.90203 1.76573L10.8705 1.76573L10.8705 5.79706C10.8705 6.07537 11.0925 6.30098 11.3665 6.30098C11.6405 6.30098 11.8626 6.07537 11.8626 5.79706L11.8626 1.26182ZM7.82977 5.56726L11.7173 1.61814L11.0157 0.905494L7.12824 4.85462L7.82977 5.56726Z" fill="#8994A4"/>
<path d="M0.504142 11.7929C0.504142 12.0712 0.726233 12.2968 1.0002 12.2968L5.46467 12.2968C5.73864 12.2968 5.96073 12.0712 5.96073 11.7929C5.96073 11.5146 5.73864 11.289 5.46467 11.289L1.49625 11.289L1.49625 7.25763C1.49625 6.97932 1.27416 6.75371 1.0002 6.75371C0.726233 6.75371 0.504143 6.97932 0.504143 7.25763L0.504142 11.7929ZM4.53693 7.48743L0.649433 11.4365L1.35096 12.1492L5.23846 8.20007L4.53693 7.48743Z" fill="#8994A4"/>
</svg>
