<svg width="24" height="24" viewBox="0 0 24 24" fill="none" xmlns="http://www.w3.org/2000/svg">
<path fill-rule="evenodd" clip-rule="evenodd" d="M16.334 3.5C18.864 3.5 20.5 5.233 20.5 7.916L20.5 16.084C20.5 18.767 18.864 20.5 16.334 20.5L7.665 20.5C5.135 20.5 3.5 18.767 3.5 16.084L3.5 7.916C3.5 5.233 5.135 3.5 7.665 3.5L16.334 3.5ZM7.665 22L16.334 22C19.723 22 22 19.622 22 16.084L22 7.916C22 4.378 19.723 2 16.334 2L7.665 2C4.276 2 2 4.378 2 7.916L2 16.084C2 19.622 4.276 22 7.665 22Z" fill="#F72F46"/>
<path fill-rule="evenodd" clip-rule="evenodd" d="M12 16.8359C12.414 16.8359 12.75 16.4999 12.75 16.0859L12.75 7.91388C12.75 7.49988 12.414 7.16388 12 7.16388C11.586 7.16388 11.25 7.49988 11.25 7.91388L11.25 16.0859C11.25 16.4999 11.586 16.8359 12 16.8359Z" fill="#F72F46"/>
<path fill-rule="evenodd" clip-rule="evenodd" d="M12 16.8369C12.199 16.8369 12.391 16.7579 12.531 16.6159L16.2791 12.8519C16.5721 12.5579 16.5701 12.0829 16.2771 11.7909C15.9831 11.4999 15.5091 11.4979 15.2171 11.7929L12 15.0239L8.78305 11.7929C8.49005 11.4979 8.01605 11.4999 7.72305 11.7909C7.43005 12.0829 7.42805 12.5579 7.72105 12.8519L11.469 16.6159C11.609 16.7579 11.801 16.8369 12 16.8369Z" fill="#F72F46"/>
</svg>
