<svg width="216" height="37" viewBox="0 0 216 37" fill="none" xmlns="http://www.w3.org/2000/svg">
<line x1="215.598" y1="36.5" x2="0.326035" y2="36.5" stroke="#FFC115" stroke-dasharray="4 4"/>
<path d="M8.64122 21.5C5.13014 19.1727 3.51563 16.7652 0.787964 12V37H215.598V8C208.179 1.23966 200.921 4.93904 186.956 14C179.977 10.0297 175.253 12.5064 166.168 20.5C158.328 14.9585 153.288 10.8272 150 12.5C148.701 14.0729 139.924 14.2679 136.603 13C132.965 7.55673 130.598 4.6005 126.902 5.5C122.085 6.67251 118.556 10.861 112.404 18.162L112.119 18.5C106.31 18.5885 103.171 20.9684 97.7988 31C94.2891 38.2051 92.2506 37.3262 88.5597 32C82.6308 22.9464 79.1748 19.7257 72.8532 16L66.3858 8.5C60.4943 4.39155 57.5091 4.8735 52.5271 8.5L48.8314 9C38.811 16.3177 33.7003 19.3955 30.3532 13C26.6542 5.05746 24.5763 0.596236 21.1141 0.5C17.8509 0.686938 16.4014 6.31608 13.7227 15L13.6952 15.0698C12.1027 19.1015 11.2007 21.385 8.64122 21.5Z" fill="url(#paint0_linear_9_781)"/>
<path d="M0.787964 12C3.51563 16.7652 5.13014 19.1727 8.64122 21.5C11.2154 21.3843 12.113 19.0751 13.7227 15C16.4014 6.31608 17.8509 0.686938 21.1141 0.5C24.5763 0.596236 26.6542 5.05746 30.3532 13C33.7003 19.3955 38.811 16.3177 48.8314 9L52.5271 8.5C57.5091 4.8735 60.4943 4.39155 66.3858 8.5L72.8532 16C79.1748 19.7257 82.6308 22.9464 88.5597 32C92.2506 37.3262 94.2891 38.2051 97.7988 31C103.171 20.9684 106.31 18.5885 112.119 18.5C118.448 10.9901 122.011 6.69049 126.902 5.5C130.598 4.6005 132.965 7.55673 136.603 13C139.924 14.2679 148.701 14.0729 150 12.5C153.288 10.8272 158.328 14.9585 166.168 20.5C175.253 12.5064 179.977 10.0297 186.956 14C200.921 4.93904 208.179 1.23966 215.598 8" stroke="#FFC115"/>
<defs>
<linearGradient id="paint0_linear_9_781" x1="108.193" y1="0.5" x2="108.463" y2="36.9997" gradientUnits="userSpaceOnUse">
<stop stop-color="#FFC700" stop-opacity="0.43"/>
<stop offset="0.466667" stop-color="#FFC700" stop-opacity="0.17"/>
<stop offset="1" stop-color="#FFC700" stop-opacity="0"/>
</linearGradient>
</defs>
</svg>
