<svg width="74" height="74" viewBox="0 0 74 74" fill="none" xmlns="http://www.w3.org/2000/svg">
<g clip-path="url(#clip0_9_858)">
<circle cx="37" cy="37" r="37" fill="#1F222E"/>
<path d="M58.3118 31.82H15.6882C15.1974 31.82 14.8 32.2064 14.8 32.6835V41.3165C14.8 41.7936 15.1974 42.18 15.6882 42.18H58.3118C58.8026 42.18 59.2 41.7936 59.2 41.3165V32.6829C59.2 32.2064 58.8026 31.82 58.3118 31.82Z" fill="white"/>
<path d="M40.7712 17.7924V17.76H15.6915C15.1989 17.76 14.8 18.174 14.8 18.6851V27.9348C14.8 28.446 15.1989 28.86 15.6915 28.86H40.7712V28.8276C40.9622 28.7769 41.1316 28.6617 41.2526 28.5002C41.3737 28.3387 41.4396 28.1401 41.44 27.9355V18.6845C41.44 18.2541 41.1554 17.8957 40.7712 17.7924Z" fill="white"/>
<path d="M46.4677 45.14H15.6922C15.1992 45.14 14.8 45.554 14.8 46.0652V55.3148C14.8 55.826 15.1992 56.24 15.6922 56.24H46.4677C46.9607 56.24 47.36 55.826 47.36 55.3148V46.0652C47.36 45.554 46.9607 45.14 46.4677 45.14Z" fill="white"/>
<path d="M47.9865 -0.223408L47.4911 -1.21523L47.0756 -0.187396C46.7993 0.496053 46.5323 0.96612 46.1261 1.38323C45.7131 1.80735 45.1286 2.2051 44.1719 2.6944L43.2292 3.17658L44.2005 3.59821C45.0398 3.96252 45.5937 4.26078 46.0184 4.6612C46.4339 5.05296 46.7595 5.57558 47.0679 6.44609L47.4489 7.52147L47.9814 6.51247C48.42 5.6813 48.789 5.13425 49.2166 4.70693C49.6413 4.28245 50.148 3.95192 50.8966 3.58961L51.7973 3.15364L50.9078 2.69513C50.0262 2.24066 49.477 1.85255 49.0631 1.42247C48.6491 0.992358 48.3451 0.494549 47.9865 -0.223408Z" fill="#FFC115" stroke="#1F1C23"/>
<path d="M11.4766 57.4954L10.9979 56.5432L10.5716 57.52C9.92788 58.9951 9.31955 60.0094 8.49437 60.8417C7.66721 61.6759 6.5924 62.3572 4.96791 63.1172L3.98246 63.5783L4.97411 64.0258C6.41798 64.6775 7.43241 65.27 8.27426 66.0874C9.11576 66.9045 9.81478 67.9757 10.5757 69.6292L11.0215 70.5981L11.4811 69.6357C12.136 68.2642 12.6533 67.273 13.4373 66.4185C14.2155 65.5704 15.2851 64.8277 17.0834 64.0269L18.0895 63.5788L17.09 63.1163C15.6275 62.4396 14.6213 61.8005 13.7883 60.9645C12.9525 60.1257 12.2643 59.0622 11.4766 57.4954Z" fill="#FFC115" stroke="#1F1C23"/>
<path d="M72.4563 48.5895L71.9766 47.761L71.5707 48.628C71.3808 49.0337 71.2078 49.2878 70.9978 49.4935C70.7828 49.7039 70.5047 49.8878 70.0652 50.122L69.1754 50.5961L70.0913 51.0175C70.5252 51.2171 70.7974 51.3875 71.0051 51.5916C71.21 51.793 71.3808 52.0557 71.5639 52.4833L71.9895 53.4774L72.4712 52.5093C72.6837 52.0823 72.869 51.8127 73.082 51.6026C73.2956 51.3917 73.5617 51.2162 73.9716 51.0099L74.8369 50.5744L73.9807 50.1213C73.5916 49.9155 73.3402 49.741 73.1271 49.5273C72.9108 49.3105 72.7126 49.0321 72.4563 48.5895Z" fill="#FFC115" stroke="#1F1C23"/>
</g>
<defs>
<clipPath id="clip0_9_858">
<rect width="74" height="74" fill="white"/>
</clipPath>
</defs>
</svg>
