<svg width="13" height="13" viewBox="0 0 13 13" fill="none" xmlns="http://www.w3.org/2000/svg">
<path d="M13 5.28061C13 5.60614 12.8705 5.90948 12.6474 6.1332C12.9003 6.40998 13.0293 6.78104 12.994 7.16723C12.9307 7.8557 12.3104 8.3952 11.5814 8.3952H8.2355C8.40125 8.89842 8.66666 9.82086 8.66666 10.5619C8.66666 11.7367 7.66838 12.7285 7.04166 12.7285C6.47941 12.7285 6.07694 12.4116 6.06016 12.3986C5.99569 12.3472 5.95832 12.2692 5.95832 12.1869V10.3501L4.39778 6.97061L4.33332 6.93757V7.04104C4.33332 7.19054 4.21197 7.31188 4.06247 7.31188H1.35416C0.607217 7.31186 0 6.70464 0 5.9577V1.62436C0 0.877391 0.607217 0.270199 1.35416 0.270199H2.97916C3.56469 0.270199 4.06519 0.643949 4.25369 1.16557C4.70437 0.933732 5.31103 0.811857 5.6875 0.811857H10.6595C11.2493 0.811857 11.7656 1.20945 11.8869 1.75761C11.9492 2.04036 11.9129 2.32473 11.7894 2.57173C12.1891 2.7727 12.4583 3.18598 12.4583 3.65561C12.4583 3.84736 12.4145 4.03098 12.3316 4.19673C12.7313 4.39823 13 4.81098 13 5.28061ZM11.8576 4.6122C11.7531 4.59973 11.6648 4.52879 11.6312 4.42857C11.5982 4.32836 11.6258 4.21842 11.7027 4.14582C11.8403 4.01636 11.9167 3.84195 11.9167 3.65561C11.9167 3.31382 11.6583 3.02673 11.3165 2.9872C11.212 2.97473 11.1237 2.90379 11.0901 2.80357C11.0571 2.70336 11.0847 2.59342 11.1616 2.52082C11.3398 2.35292 11.4113 2.11729 11.3577 1.87461C11.2911 1.57236 10.9975 1.35352 10.6595 1.35352H5.6875C5.24766 1.35352 4.50991 1.55989 4.25425 1.81611C4.17678 1.89302 4.05978 1.91576 3.95903 1.87461C3.85775 1.83289 3.79166 1.73377 3.79166 1.62436C3.79166 1.17639 3.42712 0.811857 2.97916 0.811857H1.35416C0.906191 0.811857 0.541658 1.17639 0.541658 1.62436V5.9577C0.541658 6.40567 0.906191 6.7702 1.35416 6.7702H3.79166V6.49936C3.79166 6.40564 3.84041 6.31845 3.92057 6.26861C3.99966 6.22095 4.09932 6.21607 4.18382 6.25723L4.72547 6.52807C4.78019 6.55517 4.82407 6.60067 4.85007 6.65645L6.47507 10.1773C6.49132 10.213 6.49997 10.252 6.49997 10.291V12.0401C6.61266 12.1024 6.80822 12.1869 7.04166 12.1869C7.3385 12.1869 8.125 11.4491 8.125 10.5619C8.125 9.60852 7.60609 8.23432 7.60122 8.22077C7.56981 8.13789 7.58063 8.04417 7.631 7.97052C7.68191 7.89739 7.76534 7.85352 7.85416 7.85352H11.5814C12.0331 7.85352 12.4166 7.53014 12.4545 7.11739C12.4832 6.80864 12.3348 6.51505 12.0689 6.35092C11.986 6.30002 11.9367 6.20792 11.9405 6.10989C11.9443 6.01186 12.0006 5.92411 12.0873 5.87914C12.3164 5.76267 12.4583 5.53302 12.4583 5.28061C12.4583 4.93882 12.2 4.65173 11.8576 4.6122Z" fill="#B0BFC6"/>
<path d="M4.06283 6.77148C3.91333 6.77148 3.79199 6.65014 3.79199 6.50064V1.62564C3.79199 1.47614 3.91333 1.35479 4.06283 1.35479C4.21233 1.35479 4.33368 1.47614 4.33368 1.62564V6.50064C4.33368 6.65014 4.21233 6.77148 4.06283 6.77148Z" fill="#B0BFC6"/>
</svg>
