<svg width="13" height="13" viewBox="0 0 13 13" fill="none" xmlns="http://www.w3.org/2000/svg">
<path fill-rule="evenodd" clip-rule="evenodd" d="M6.5 13C2.90997 13 0 10.09 0 6.5C0 2.90997 2.90997 0 6.5 0C10.09 0 13 2.90997 13 6.5C13 10.09 10.09 13 6.5 13ZM9.14062 7.78131C9.14062 6.75634 8.50037 6.17744 7.00253 5.81669V4.01294C7.46566 4.108 7.90887 4.30747 8.34234 4.62069L8.89444 3.72856C8.35063 3.33025 7.71189 3.08148 7.04194 3.00706V2.4375H6.18475V2.98797C4.953 3.08303 4.11572 3.78544 4.11572 4.81041C4.11572 5.88291 4.78562 6.40494 6.22416 6.76569V8.62631C5.5835 8.53125 5.05172 8.24647 4.48987 7.80975L3.85938 8.67344C4.53427 9.19299 5.3384 9.51807 6.18475 9.6135V10.5625H7.04194V9.62284C8.29319 9.51844 9.14062 8.82537 9.14062 7.78131ZM6.22375 5.61722C5.46528 5.39906 5.27841 5.14272 5.27841 4.74378C5.27841 4.32656 5.60341 3.99425 6.22416 3.94672L6.22375 5.61722ZM7.97794 7.84753C7.97794 8.30334 7.62328 8.61656 7.00253 8.66409V6.94606C7.77116 7.16462 7.97794 7.42056 7.97794 7.84794V7.84753Z" fill="white"/>
</svg>
