<?xml version="1.0" encoding="utf-8"?>
<!-- Generator: Adobe Illustrator 23.0.2, SVG Export Plug-In . SVG Version: 6.00 Build 0)  -->
<svg version="1.1" id="Layer_1" xmlns="http://www.w3.org/2000/svg" xmlns:xlink="http://www.w3.org/1999/xlink" x="0px" y="0px"
	 viewBox="0 0 33 33" style="enable-background:new 0 0 33 33;" xml:space="preserve">
<style type="text/css">
	.st0{fill-rule:evenodd;clip-rule:evenodd;}
</style>
<path class="st0" d="M16.5,0C7.38702,0,0,7.38702,0,16.5c0,8.84802,6.9693,16.04791,15.71533,16.46027
	c0.18665,0.01306,0.37201,0.04083,0.55988,0.0415c0.03784,0.00012,0.07556-0.00714,0.1134-0.00751
	c0.03754,0.00024,0.07379,0.00562,0.11139,0.00562c9.11292,0,16.5-7.38696,16.5-16.49988C33,7.38702,25.61292,0,16.5,0z
	 M27.04053,26.95642c0.02869-0.07428,0.07458-0.14038,0.09607-0.21753c0.12848-0.46222,0.11938-0.95178-0.02612-1.40887
	c-0.14545-0.45709-0.42108-0.86182-0.79309-1.16473c-0.37201-0.3028-0.82428-0.49066-1.30139-0.54047
	c-6.40027-0.66241-10.58966-0.72681-17.02136-0.01483v-0.00079c-0.61127,0.0686-1.17566,0.36041-1.58514,0.81934
	c-0.40955,0.45898-0.63531,1.05286-0.63409,1.66797c-0.00037,0.28253,0.05884,0.5592,0.15222,0.82483
	C3.28455,24.24023,1.65002,20.56219,1.65002,16.5c0-8.20135,6.64862-14.84998,14.84998-14.84998
	c8.20129,0,14.84998,6.64862,14.84998,14.84998C31.34998,20.57922,29.70319,24.27252,27.04053,26.95642z"/>
<path class="st0" d="M21.1673,8.53467c-1.23767-1.23773-2.9165-1.93311-4.66687-1.93311c-1.75043,0-3.4292,0.69537-4.66693,1.93311
	C10.5957,9.7724,9.90039,11.45111,9.90039,13.2016c0,1.75043,0.69531,3.42908,1.93311,4.66681
	c1.23773,1.23779,2.9165,1.93311,4.66693,1.93311c1.75037,0,3.4292-0.69531,4.66687-1.93311
	c1.23773-1.23773,1.93311-2.91638,1.93311-4.66681C23.1004,11.45111,22.40503,9.7724,21.1673,8.53467z"/>
</svg>
